<svg width="34" height="34" viewBox="0 0 34 34" fill="none" xmlns="http://www.w3.org/2000/svg">
<mask id="mask0_47_8664" style="mask-type:alpha" maskUnits="userSpaceOnUse" x="0" y="0" width="34" height="34">
<rect x="0.200195" y="0.200195" width="33.6" height="33.6" fill="#D9D9D9"/>
</mask>
<g mask="url(#mask0_47_8664)">
<path d="M10.0002 32.4001C9.2302 32.4001 8.57103 32.1259 8.0227 31.5776C7.47436 31.0293 7.2002 30.3701 7.2002 29.6001V4.4001C7.2002 3.6301 7.47436 2.97093 8.0227 2.4226C8.57103 1.87426 9.2302 1.6001 10.0002 1.6001H24.0002C24.7702 1.6001 25.4294 1.87426 25.9777 2.4226C26.526 2.97093 26.8002 3.6301 26.8002 4.4001V8.7401C27.2202 8.90343 27.5585 9.1601 27.8152 9.5101C28.0719 9.8601 28.2002 10.2568 28.2002 10.7001V13.5001C28.2002 13.9434 28.0719 14.3401 27.8152 14.6901C27.5585 15.0401 27.2202 15.2968 26.8002 15.4601V29.6001C26.8002 30.3701 26.526 31.0293 25.9777 31.5776C25.4294 32.1259 24.7702 32.4001 24.0002 32.4001H10.0002ZM15.6702 17.2801L14.6902 16.3001C14.4335 16.0434 14.1069 15.9151 13.7102 15.9151C13.3135 15.9151 12.9869 16.0434 12.7302 16.3001C12.4735 16.5568 12.3452 16.8834 12.3452 17.2801C12.3452 17.6768 12.4735 18.0034 12.7302 18.2601L14.6902 20.2201C14.9702 20.5001 15.2969 20.6401 15.6702 20.6401C16.0435 20.6401 16.3702 20.5001 16.6502 20.2201L21.6202 15.2501C21.8769 14.9934 22.0052 14.6668 22.0052 14.2701C22.0052 13.8734 21.8769 13.5468 21.6202 13.2901C21.3635 13.0334 21.0369 12.9051 20.6402 12.9051C20.2435 12.9051 19.9169 13.0334 19.6602 13.2901L15.6702 17.2801Z" fill="#DE344B"/>
</g>
</svg>
