<svg width="34" height="34" viewBox="0 0 34 34" fill="none" xmlns="http://www.w3.org/2000/svg">
<mask id="mask0_47_8670" style="mask-type:alpha" maskUnits="userSpaceOnUse" x="0" y="0" width="34" height="34">
<rect x="0.200195" y="0.200195" width="33.6" height="33.6" fill="#D9D9D9"/>
</mask>
<g mask="url(#mask0_47_8670)">
<path d="M8.6 25.4002H17V24.7702C17 24.3736 16.8892 24.0061 16.6675 23.6677C16.4458 23.3294 16.1367 23.0669 15.74 22.8802C15.2733 22.6702 14.8008 22.5127 14.3225 22.4077C13.8442 22.3027 13.3367 22.2502 12.8 22.2502C12.2633 22.2502 11.7558 22.3027 11.2775 22.4077C10.7992 22.5127 10.3267 22.6702 9.86 22.8802C9.46333 23.0669 9.15417 23.3294 8.9325 23.6677C8.71083 24.0061 8.6 24.3736 8.6 24.7702V25.4002ZM20.85 23.3002H24.35C24.6533 23.3002 24.9042 23.2011 25.1025 23.0027C25.3008 22.8044 25.4 22.5536 25.4 22.2502C25.4 21.9469 25.3008 21.6961 25.1025 21.4977C24.9042 21.2994 24.6533 21.2002 24.35 21.2002H20.85C20.5467 21.2002 20.2958 21.2994 20.0975 21.4977C19.8992 21.6961 19.8 21.9469 19.8 22.2502C19.8 22.5536 19.8992 22.8044 20.0975 23.0027C20.2958 23.2011 20.5467 23.3002 20.85 23.3002ZM12.8 21.2002C13.3833 21.2002 13.8792 20.9961 14.2875 20.5877C14.6958 20.1794 14.9 19.6836 14.9 19.1002C14.9 18.5169 14.6958 18.0211 14.2875 17.6127C13.8792 17.2044 13.3833 17.0002 12.8 17.0002C12.2167 17.0002 11.7208 17.2044 11.3125 17.6127C10.9042 18.0211 10.7 18.5169 10.7 19.1002C10.7 19.6836 10.9042 20.1794 11.3125 20.5877C11.7208 20.9961 12.2167 21.2002 12.8 21.2002ZM20.85 19.1002H24.35C24.6533 19.1002 24.9042 19.0011 25.1025 18.8027C25.3008 18.6044 25.4 18.3536 25.4 18.0502C25.4 17.7469 25.3008 17.4961 25.1025 17.2977C24.9042 17.0994 24.6533 17.0002 24.35 17.0002H20.85C20.5467 17.0002 20.2958 17.0994 20.0975 17.2977C19.8992 17.4961 19.8 17.7469 19.8 18.0502C19.8 18.3536 19.8992 18.6044 20.0975 18.8027C20.2958 19.0011 20.5467 19.1002 20.85 19.1002ZM5.8 31.0002C5.03 31.0002 4.37083 30.7261 3.8225 30.1777C3.27417 29.6294 3 28.9702 3 28.2002V12.8002C3 12.0302 3.27417 11.3711 3.8225 10.8227C4.37083 10.2744 5.03 10.0002 5.8 10.0002H12.8V5.80024C12.8 5.03024 13.0742 4.37108 13.6225 3.82274C14.1708 3.27441 14.83 3.00024 15.6 3.00024H18.4C19.17 3.00024 19.8292 3.27441 20.3775 3.82274C20.9258 4.37108 21.2 5.03024 21.2 5.80024V10.0002H28.2C28.97 10.0002 29.6292 10.2744 30.1775 10.8227C30.7258 11.3711 31 12.0302 31 12.8002V28.2002C31 28.9702 30.7258 29.6294 30.1775 30.1777C29.6292 30.7261 28.97 31.0002 28.2 31.0002H5.8ZM15.6 12.8002H18.4V5.80024H15.6V12.8002Z" fill="#DE344B"/>
</g>
</svg>
