<svg width="22" height="28" viewBox="0 0 22 28" fill="none" xmlns="http://www.w3.org/2000/svg">
<path d="M9.60053 17.5001L1.30553 16.4501C0.722193 16.3801 0.343026 16.0651 0.168026 15.5051C-0.0069738 14.9451 0.115526 14.4668 0.535526 14.0701L14.8505 0.350122C14.9672 0.233455 15.1072 0.145955 15.2705 0.0876221C15.4339 0.0292887 15.6555 0.00012207 15.9355 0.00012207C16.4022 0.00012207 16.758 0.198455 17.003 0.595122C17.248 0.991789 17.2539 1.40012 17.0205 1.82012L12.4005 10.5001L20.6955 11.5501C21.2789 11.6201 21.658 11.9351 21.833 12.4951C22.008 13.0551 21.8855 13.5335 21.4655 13.9301L7.15053 27.6501C7.03386 27.7668 6.89386 27.8543 6.73053 27.9126C6.56719 27.971 6.34553 28.0001 6.06553 28.0001C5.59886 28.0001 5.24303 27.8018 4.99803 27.4051C4.75303 27.0085 4.74719 26.6001 4.98053 26.1801L9.60053 17.5001Z" fill="#DE344B"/>
</svg>
