<svg width="34" height="34" viewBox="0 0 34 34" fill="none" xmlns="http://www.w3.org/2000/svg">
<mask id="mask0_4_133" style="mask-type:alpha" maskUnits="userSpaceOnUse" x="0" y="0" width="34" height="34">
<rect x="0.200073" y="0.200195" width="33.6" height="33.6" fill="#D9D9D9"/>
</mask>
<g mask="url(#mask0_4_133)">
<path d="M7.20027 29.5999C6.43027 29.5999 5.7711 29.3257 5.22277 28.7774C4.67444 28.2291 4.40027 27.5699 4.40027 26.7999V7.1999C4.40027 6.4299 4.67444 5.77074 5.22277 5.2224C5.7711 4.67407 6.43027 4.3999 7.20027 4.3999H17.6303C18.0969 4.3999 18.4528 4.60407 18.6978 5.0124C18.9428 5.42074 18.9719 5.85824 18.7853 6.3249C18.6686 6.69824 18.5753 7.07157 18.5053 7.4449C18.4353 7.81824 18.4003 8.20324 18.4003 8.5999C18.4003 10.5366 19.0828 12.1874 20.4478 13.5524C21.8128 14.9174 23.4636 15.5999 25.4003 15.5999C25.7969 15.5999 26.1819 15.5649 26.5553 15.4949C26.9286 15.4249 27.3019 15.3316 27.6753 15.2149C28.1419 15.0516 28.5794 15.0866 28.9878 15.3199C29.3961 15.5532 29.6003 15.9032 29.6003 16.3699V26.7999C29.6003 27.5699 29.3261 28.2291 28.7778 28.7774C28.2294 29.3257 27.5703 29.5999 26.8003 29.5999H7.20027ZM8.60027 23.9999H25.4003L20.1503 16.9999L15.9503 22.5999L12.8003 18.3999L8.60027 23.9999ZM25.4003 12.7999C25.0036 12.7999 24.6711 12.6657 24.4028 12.3974C24.1344 12.1291 24.0003 11.7966 24.0003 11.3999V9.9999H22.6003C22.2036 9.9999 21.8711 9.86574 21.6028 9.5974C21.3344 9.32907 21.2003 8.99657 21.2003 8.5999C21.2003 8.20324 21.3344 7.87074 21.6028 7.6024C21.8711 7.33407 22.2036 7.1999 22.6003 7.1999H24.0003V5.7999C24.0003 5.40324 24.1344 5.07074 24.4028 4.8024C24.6711 4.53407 25.0036 4.3999 25.4003 4.3999C25.7969 4.3999 26.1294 4.53407 26.3978 4.8024C26.6661 5.07074 26.8003 5.40324 26.8003 5.7999V7.1999H28.2003C28.5969 7.1999 28.9294 7.33407 29.1978 7.6024C29.4661 7.87074 29.6003 8.20324 29.6003 8.5999C29.6003 8.99657 29.4661 9.32907 29.1978 9.5974C28.9294 9.86574 28.5969 9.9999 28.2003 9.9999H26.8003V11.3999C26.8003 11.7966 26.6661 12.1291 26.3978 12.3974C26.1294 12.6657 25.7969 12.7999 25.4003 12.7999Z" fill="#DE344B"/>
</g>
</svg>
