<svg width="142" height="62" viewBox="0 0 142 62" fill="none" xmlns="http://www.w3.org/2000/svg">
<path d="M49.9044 11.1368V30.2368H43.3127V11.1368H32.9543V5.82435H60.2806V11.1368H49.9044ZM91.8839 18.0484C91.8839 20.1449 91.499 21.9986 90.729 23.6096C89.9591 25.2086 88.8575 26.5471 87.4243 27.625C85.991 28.7029 84.2498 29.5202 82.2007 30.0769C80.1633 30.6218 77.8713 30.8942 75.3247 30.8942C72.778 30.8942 70.4741 30.6218 68.4131 30.0769C66.3639 29.5202 64.6168 28.7029 63.1717 27.625C61.7266 26.5471 60.6132 25.2086 59.8314 23.6096C59.0497 21.9986 58.6588 20.1449 58.6588 18.0484C58.6588 15.9518 59.0497 14.104 59.8314 12.5049C60.6132 10.894 61.7266 9.54959 63.1717 8.4717C64.6168 7.39381 66.3639 6.58243 68.4131 6.03756C70.4741 5.48085 72.778 5.20249 75.3247 5.20249C77.8713 5.20249 80.1633 5.48085 82.2007 6.03756C84.2498 6.58243 85.991 7.39381 87.4243 8.4717C88.8575 9.54959 89.9591 10.894 90.729 12.5049C91.499 14.104 91.8839 15.9518 91.8839 18.0484ZM85.2211 18.0484C85.2211 17.1363 85.0731 16.2301 84.7769 15.3299C84.4927 14.4179 83.9774 13.6006 83.2312 12.878C82.4968 12.1555 81.49 11.5692 80.2107 11.119C78.9314 10.6689 77.3028 10.4439 75.3247 10.4439C73.998 10.4439 72.8313 10.5505 71.8245 10.7637C70.8177 10.9651 69.947 11.2493 69.2127 11.6165C68.4783 11.9837 67.8623 12.4161 67.3648 12.9136C66.8674 13.3992 66.4705 13.9263 66.1744 14.4949C65.8783 15.0516 65.6651 15.6379 65.5348 16.2538C65.4163 16.8579 65.3571 17.4561 65.3571 18.0484C65.3571 18.6524 65.4163 19.2625 65.5348 19.8784C65.6651 20.4943 65.8783 21.0866 66.1744 21.6551C66.4705 22.2119 66.8674 22.733 67.3648 23.2187C67.8623 23.7043 68.4783 24.1307 69.2127 24.4979C69.947 24.8533 70.8177 25.1376 71.8245 25.3508C72.8313 25.5521 73.998 25.6528 75.3247 25.6528C77.3028 25.6528 78.9314 25.4278 80.2107 24.9777C81.49 24.5275 82.4968 23.9412 83.2312 23.2187C83.9774 22.4961 84.4927 21.6848 84.7769 20.7845C85.0731 19.8725 85.2211 18.9604 85.2211 18.0484ZM120.592 14.1573C120.592 15.3773 120.414 16.5026 120.059 17.5331C119.703 18.5518 119.129 19.4342 118.335 20.1804C117.554 20.9148 116.535 21.4893 115.279 21.9039C114.024 22.3185 112.496 22.5257 110.695 22.5257H99.7506V30.2368H93.1589V5.82435H110.695C112.496 5.82435 114.024 6.03164 115.279 6.44621C116.535 6.84894 117.554 7.42342 118.335 8.16965C119.129 8.90404 119.703 9.78057 120.059 10.7992C120.414 11.8179 120.592 12.9372 120.592 14.1573ZM113.929 14.2639C113.929 13.6953 113.846 13.2097 113.68 12.807C113.526 12.3924 113.266 12.0548 112.899 11.7942C112.531 11.5336 112.052 11.3441 111.459 11.2257C110.867 11.0954 110.139 11.0302 109.274 11.0302H99.7506V17.3199H109.274C110.139 17.3199 110.867 17.2725 111.459 17.1777C112.052 17.0711 112.531 16.8994 112.899 16.6625C113.266 16.4137 113.526 16.0939 113.68 15.703C113.846 15.3122 113.929 14.8324 113.929 14.2639Z" fill="url(#paint0_linear_56_6466)"/>
<path d="M19.7752 33.1502C22.1679 33.1502 24.3888 33.3575 26.438 33.7721C28.499 34.1748 30.3883 34.696 32.1058 35.3356V41.3055C31.4306 40.9265 30.6666 40.5593 29.8138 40.2039C28.9728 39.8486 28.0548 39.5347 27.0599 39.2622C26.0649 38.9898 24.9988 38.7707 23.8617 38.6048C22.7246 38.439 21.5283 38.3561 20.2727 38.3561C18.7092 38.3561 17.347 38.4686 16.1862 38.6937C15.0254 38.9187 14.0304 39.2208 13.2013 39.5998C12.3721 39.9789 11.691 40.4231 11.158 40.9324C10.625 41.4299 10.2045 41.9629 9.89651 42.5315C9.58854 43.1 9.37533 43.6804 9.25688 44.2727C9.13843 44.8649 9.0792 45.4394 9.0792 45.9961C9.0792 46.4817 9.12658 47.0088 9.22134 47.5774C9.32795 48.146 9.51747 48.7145 9.7899 49.2831C10.0742 49.8516 10.4651 50.3965 10.9626 50.9177C11.46 51.4389 12.1056 51.9008 12.8992 52.3035C13.7047 52.7063 14.67 53.032 15.7953 53.2808C16.9206 53.5177 18.259 53.6361 19.8107 53.6361C20.5925 53.6361 21.2736 53.6124 21.854 53.565C22.4344 53.5177 22.9615 53.4525 23.4353 53.3696C23.9209 53.2867 24.371 53.186 24.7856 53.0675C25.212 52.9491 25.6503 52.8247 26.1004 52.6944V49.745H18.7092V44.397H32.6921V56.8698C31.8156 57.1659 30.8325 57.4383 29.7427 57.6871C28.6648 57.924 27.5455 58.1253 26.3847 58.2912C25.2357 58.4688 24.0808 58.6051 22.92 58.6998C21.7592 58.7946 20.6636 58.842 19.6331 58.842C18.034 58.842 16.5001 58.7354 15.0313 58.5222C13.5625 58.3089 12.1885 57.9832 10.9093 57.5449C9.64184 57.0948 8.48103 56.5263 7.42683 55.8393C6.38448 55.1523 5.49018 54.335 4.74395 53.3874C4.00956 52.4398 3.43508 51.3559 3.02051 50.1359C2.61778 48.904 2.41641 47.5241 2.41641 45.9961C2.41641 44.4799 2.62962 43.1059 3.05604 41.8741C3.48246 40.6422 4.07471 39.5524 4.83279 38.6048C5.60271 37.6573 6.52069 36.8399 7.58674 36.1529C8.66463 35.4659 9.8432 34.9033 11.1225 34.465C12.4136 34.0149 13.7876 33.6833 15.2445 33.4701C16.7133 33.2568 18.2235 33.1502 19.7752 33.1502ZM35.0687 58.1846V33.7721H41.6604V52.8366H59.4812V58.1846H35.0687ZM92.3637 45.9961C92.3637 48.0927 91.9788 49.9464 91.2088 51.5573C90.4389 53.1564 89.3373 54.4949 87.9041 55.5728C86.4709 56.6506 84.7297 57.468 82.6805 58.0247C80.6431 58.5695 78.3511 58.842 75.8045 58.842C73.2578 58.842 70.954 58.5695 68.8929 58.0247C66.8438 57.468 65.0966 56.6506 63.6515 55.5728C62.2065 54.4949 61.093 53.1564 60.3113 51.5573C59.5295 49.9464 59.1386 48.0927 59.1386 45.9961C59.1386 43.8995 59.5295 42.0517 60.3113 40.4527C61.093 38.8417 62.2065 37.4973 63.6515 36.4195C65.0966 35.3416 66.8438 34.5302 68.8929 33.9853C70.954 33.4286 73.2578 33.1502 75.8045 33.1502C78.3511 33.1502 80.6431 33.4286 82.6805 33.9853C84.7297 34.5302 86.4709 35.3416 87.9041 36.4195C89.3373 37.4973 90.4389 38.8417 91.2088 40.4527C91.9788 42.0517 92.3637 43.8995 92.3637 45.9961ZM85.7009 45.9961C85.7009 45.084 85.5529 44.1779 85.2568 43.2777C84.9725 42.3656 84.4572 41.5483 83.711 40.8258C82.9766 40.1032 81.9698 39.5169 80.6905 39.0668C79.4113 38.6167 77.7826 38.3916 75.8045 38.3916C74.4778 38.3916 73.3111 38.4982 72.3043 38.7115C71.2975 38.9128 70.4269 39.1971 69.6925 39.5643C68.9581 39.9315 68.3422 40.3638 67.8447 40.8613C67.3472 41.347 66.9504 41.8741 66.6542 42.4426C66.3581 42.9993 66.1449 43.5857 66.0146 44.2016C65.8962 44.8057 65.8369 45.4039 65.8369 45.9961C65.8369 46.6002 65.8962 47.2102 66.0146 47.8262C66.1449 48.4421 66.3581 49.0343 66.6542 49.6029C66.9504 50.1596 67.3472 50.6808 67.8447 51.1664C68.3422 51.6521 68.9581 52.0785 69.6925 52.4457C70.4269 52.801 71.2975 53.0853 72.3043 53.2985C73.3111 53.4999 74.4778 53.6006 75.8045 53.6006C77.7826 53.6006 79.4113 53.3755 80.6905 52.9254C81.9698 52.4753 82.9766 51.889 83.711 51.1664C84.4572 50.4439 84.9725 49.6325 85.2568 48.7323C85.5529 47.8202 85.7009 46.9082 85.7009 45.9961ZM117.181 33.7721L123.417 50.7222L130.169 33.7721H137.009L127.201 58.1846H119.881L113.503 41.7675L107.142 58.1846H99.8218L89.9964 33.7721H96.8546L103.464 50.3669L109.843 33.7721H117.181Z" fill="url(#paint1_linear_56_6466)"/>
<path d="M111.596 30.0334C111.161 30.0334 110.76 29.9118 110.391 29.6687C110.03 29.4182 109.739 29.0793 109.518 28.652C109.305 28.2173 109.198 27.7237 109.198 27.1712C109.198 26.6186 109.308 26.125 109.529 25.6903C109.75 25.2556 110.049 24.9131 110.424 24.6626C110.808 24.4121 111.235 24.2868 111.706 24.2868C112.222 24.2868 112.613 24.4195 112.878 24.6847C113.15 24.9425 113.335 25.2888 113.43 25.7235C113.533 26.1581 113.585 26.6407 113.585 27.1712C113.585 27.4511 113.556 27.7569 113.497 28.0884C113.438 28.4125 113.335 28.7257 113.187 29.0277C113.047 29.3224 112.848 29.5655 112.59 29.7571C112.333 29.9413 112.001 30.0334 111.596 30.0334ZM111.817 29.1935C112.193 29.1935 112.502 29.1014 112.745 28.9172C112.996 28.733 113.18 28.4899 113.298 28.1878C113.416 27.8784 113.475 27.5395 113.475 27.1712C113.475 26.7659 113.412 26.4123 113.287 26.1103C113.169 25.8008 112.985 25.5614 112.734 25.3919C112.491 25.2151 112.185 25.1267 111.817 25.1267C111.264 25.1267 110.837 25.322 110.535 25.7124C110.233 26.0955 110.082 26.5818 110.082 27.1712C110.082 27.5616 110.156 27.9116 110.303 28.221C110.458 28.5231 110.664 28.7625 110.922 28.9393C111.187 29.1088 111.485 29.1935 111.817 29.1935ZM113.475 24.3974H114.359V29.9229H113.552C113.552 29.9229 113.545 29.8565 113.53 29.7239C113.522 29.5913 113.511 29.4366 113.497 29.2598C113.482 29.083 113.475 28.9356 113.475 28.8178V24.3974ZM116.783 29.0498C116.392 29.0498 116.02 28.9577 115.666 28.7735C115.32 28.582 115.036 28.3094 114.815 27.9558C114.602 27.6021 114.495 27.1785 114.495 26.6849C114.495 26.1913 114.602 25.7677 114.815 25.414C115.029 25.053 115.309 24.7768 115.655 24.5852C116.002 24.3863 116.377 24.2868 116.783 24.2868C116.908 24.2868 117.026 24.2979 117.136 24.32C117.254 24.3347 117.365 24.3605 117.468 24.3974H119.711V25.3477C119.394 25.3477 119.077 25.2888 118.761 25.1709C118.451 25.053 118.186 24.9315 117.965 24.8062L117.921 24.762C118.179 24.902 118.389 25.0678 118.551 25.2593C118.72 25.4509 118.845 25.6682 118.926 25.9113C119.015 26.1471 119.059 26.4049 119.059 26.6849C119.059 27.1785 118.952 27.6021 118.739 27.9558C118.532 28.3094 118.256 28.582 117.91 28.7735C117.563 28.9577 117.188 29.0498 116.783 29.0498ZM118.407 32.1331V31.8899C118.407 31.4995 118.304 31.2158 118.098 31.039C117.899 30.8622 117.597 30.7738 117.191 30.7738H116.086C115.843 30.7738 115.63 30.7517 115.445 30.7075C115.269 30.6706 115.121 30.6117 115.003 30.5307C114.885 30.4496 114.797 30.3502 114.738 30.2323C114.679 30.1144 114.65 29.9818 114.65 29.8344C114.65 29.5545 114.734 29.3445 114.904 29.2045C115.073 29.0572 115.283 28.9651 115.534 28.9283C115.784 28.8914 116.024 28.8914 116.252 28.9283L116.783 29.0498C116.385 29.0719 116.075 29.1124 115.854 29.1714C115.641 29.2303 115.534 29.3556 115.534 29.5471C115.534 29.6576 115.574 29.7497 115.655 29.8234C115.744 29.8897 115.873 29.9229 116.042 29.9229H117.191C117.575 29.9229 117.924 29.9744 118.241 30.0776C118.558 30.1881 118.812 30.3686 119.004 30.6191C119.195 30.8769 119.291 31.2269 119.291 31.6689V32.1331H118.407ZM116.783 28.221C117.026 28.221 117.25 28.1621 117.457 28.0442C117.67 27.9263 117.843 27.7532 117.976 27.5248C118.109 27.2964 118.175 27.0164 118.175 26.6849C118.175 26.3534 118.109 26.0734 117.976 25.845C117.851 25.6093 117.681 25.4325 117.468 25.3146C117.254 25.1893 117.026 25.1267 116.783 25.1267C116.539 25.1267 116.311 25.1893 116.097 25.3146C115.884 25.4325 115.711 25.6056 115.578 25.834C115.445 26.0624 115.379 26.346 115.379 26.6849C115.379 27.0164 115.445 27.2964 115.578 27.5248C115.711 27.7532 115.884 27.9263 116.097 28.0442C116.311 28.1621 116.539 28.221 116.783 28.221ZM123.668 28.1436H124.497C124.438 28.5046 124.306 28.8288 124.099 29.1161C123.9 29.3961 123.635 29.6208 123.304 29.7902C122.979 29.9523 122.604 30.0334 122.176 30.0334C121.661 30.0334 121.196 29.9118 120.784 29.6687C120.371 29.4182 120.044 29.0793 119.8 28.652C119.565 28.2173 119.447 27.7237 119.447 27.1712C119.447 26.6186 119.561 26.125 119.789 25.6903C120.025 25.2556 120.346 24.9131 120.751 24.6626C121.156 24.4121 121.613 24.2868 122.121 24.2868C122.659 24.2868 123.112 24.4084 123.48 24.6515C123.856 24.8873 124.132 25.2372 124.309 25.7014C124.493 26.1581 124.567 26.7217 124.53 27.3922H120.331C120.368 27.7532 120.467 28.07 120.629 28.3426C120.791 28.6151 121.005 28.8288 121.27 28.9835C121.535 29.1309 121.837 29.2045 122.176 29.2045C122.552 29.2045 122.869 29.1088 123.127 28.9172C123.392 28.7183 123.572 28.4604 123.668 28.1436ZM122.154 25.1157C121.697 25.1157 121.314 25.2483 121.005 25.5135C120.696 25.7787 120.489 26.1397 120.386 26.5965H123.624C123.595 26.1103 123.436 25.7419 123.149 25.4914C122.869 25.2409 122.537 25.1157 122.154 25.1157ZM124.676 24.3974H125.56V29.9229H124.676V24.3974ZM127.46 24.2868C127.755 24.2868 128.02 24.331 128.256 24.4195C128.492 24.5079 128.691 24.6368 128.853 24.8062C129.015 24.9757 129.14 25.182 129.229 25.4251C129.317 25.6608 129.361 25.9298 129.361 26.2318V29.9229H128.477V26.4528C128.477 26.0255 128.378 25.7051 128.179 25.4914C127.98 25.2777 127.681 25.1709 127.284 25.1709C126.982 25.1709 126.702 25.2483 126.444 25.403C126.186 25.5577 125.972 25.7714 125.803 26.044C125.641 26.3092 125.541 26.6186 125.504 26.9722L125.493 26.3313C125.53 26.0218 125.604 25.7419 125.714 25.4914C125.832 25.2409 125.976 25.0273 126.145 24.8504C126.322 24.6663 126.521 24.5263 126.742 24.4305C126.971 24.3347 127.21 24.2868 127.46 24.2868ZM134.707 27.8453C134.655 28.302 134.508 28.6962 134.265 29.0277C134.029 29.3519 133.731 29.6024 133.37 29.7792C133.009 29.9486 132.618 30.0334 132.198 30.0334C131.727 30.0334 131.285 29.9192 130.872 29.6908C130.459 29.4624 130.124 29.1345 129.866 28.7072C129.616 28.2726 129.491 27.7605 129.491 27.1712C129.491 26.5818 129.616 26.0734 129.866 25.6461C130.124 25.2114 130.459 24.8762 130.872 24.6405C131.285 24.4047 131.727 24.2868 132.198 24.2868C132.618 24.2868 133.005 24.3752 133.358 24.5521C133.719 24.7289 134.018 24.9794 134.254 25.3035C134.497 25.6277 134.648 26.0145 134.707 26.4639H133.9C133.775 26.044 133.557 25.7161 133.248 25.4803C132.939 25.2372 132.589 25.1157 132.198 25.1157C131.881 25.1157 131.583 25.1967 131.303 25.3588C131.023 25.5209 130.798 25.7566 130.629 26.0661C130.459 26.3681 130.375 26.7365 130.375 27.1712C130.375 27.5985 130.459 27.9668 130.629 28.2763C130.798 28.5783 131.019 28.8104 131.292 28.9725C131.572 29.1272 131.874 29.2045 132.198 29.2045C132.648 29.2045 133.012 29.0867 133.292 28.8509C133.58 28.6078 133.786 28.2726 133.911 27.8453H134.707ZM134.341 24.3974H135.291L137.269 29.7018L136.496 29.9229L134.341 24.3974ZM139.48 24.3974L136.396 32.1331H135.435L136.772 29.1493L138.54 24.3974H139.48Z" fill="#DE344B"/>
<defs>
<linearGradient id="paint0_linear_56_6466" x1="61.5146" y1="14.1304" x2="88.3684" y2="14.3852" gradientUnits="userSpaceOnUse">
<stop stop-color="#E3E3E3"/>
<stop offset="0.559729" stop-color="white"/>
<stop offset="1" stop-color="#E3E3E3"/>
</linearGradient>
<linearGradient id="paint1_linear_56_6466" x1="55.3397" y1="42.6065" x2="97.1932" y2="42.6065" gradientUnits="userSpaceOnUse">
<stop stop-color="#E3E3E3"/>
<stop offset="0.559729" stop-color="white"/>
<stop offset="1" stop-color="#E3E3E3"/>
</linearGradient>
</defs>
</svg>
