<svg width="61" height="62" viewBox="0 0 61 62" fill="none" xmlns="http://www.w3.org/2000/svg">
<path fill-rule="evenodd" clip-rule="evenodd" d="M42.4981 0.0317383C42.4981 0.0317383 41.9315 2.82764 39.0398 6.01604C37.1806 8.06617 34.2667 10.298 32.3815 11.5409C31.8828 11.8698 31.391 12.1883 30.5602 12.1883C29.7294 12.1883 29.2581 11.8795 28.8812 11.6342C27.0032 10.4121 23.9873 8.1185 22.0806 6.01604C19.189 2.82764 18.6225 0.0317383 18.6225 0.0317383C18.6225 0.0317383 18.2946 3.28404 21.5662 7.25457C23.5291 9.63675 26.2016 12.1082 27.6196 15.3993C28.8089 18.1599 30.5384 29.2851 30.5604 29.1424C30.5822 29.2852 32.3116 18.1599 33.5011 15.3993C34.919 12.1082 37.5914 9.63675 39.5544 7.25457C42.8259 3.28415 42.4981 0.0317383 42.4981 0.0317383Z" fill="#EE2400"/>
<path fill-rule="evenodd" clip-rule="evenodd" d="M0 18.534C0 18.534 2.79591 19.1006 5.9843 21.9921C8.03432 23.8513 10.2663 26.7653 11.5092 28.6505C11.8381 29.1494 12.1564 29.6411 12.1564 30.4719C12.1565 31.3027 11.8478 31.774 11.6025 32.1509C10.3804 34.0289 8.08676 37.0448 5.9843 38.9515C2.79591 41.843 0 42.4096 0 42.4096C0 42.4096 3.2523 42.7374 7.22272 39.4659C9.60502 37.5029 12.0764 34.8305 15.3676 33.4125C18.1281 32.2231 29.2533 30.4937 29.1106 30.4717C29.2534 30.4499 18.1281 28.7204 15.3676 27.531C12.0764 26.1131 9.60502 23.4406 7.22272 21.4777C3.2523 18.2061 0 18.534 0 18.534Z" fill="#EE2400"/>
<path fill-rule="evenodd" clip-rule="evenodd" d="M18.5022 61.0319C18.5022 61.0319 19.0687 58.236 21.9604 55.0475C23.8196 52.9975 26.7335 50.7657 28.6187 49.5227C29.1175 49.1938 29.6092 48.8754 30.4401 48.8755C31.2708 48.8754 31.7422 49.1841 32.1191 49.4295C33.997 50.6516 37.0129 52.9452 38.9197 55.0476C41.8112 58.236 42.3778 61.0319 42.3778 61.0319C42.3778 61.0319 42.7057 57.7795 39.4341 53.8092C37.4712 51.4269 34.7987 48.9556 33.3807 45.6644C32.1915 42.9039 30.4619 31.7786 30.4399 31.9213C30.4182 31.7785 28.6886 42.9038 27.4991 45.6644C26.0813 48.9555 23.4089 51.4269 21.4458 53.8092C18.1744 57.7796 18.5022 61.0319 18.5022 61.0319Z" fill="#EE2400"/>
<path fill-rule="evenodd" clip-rule="evenodd" d="M61.0001 42.5302C61.0001 42.5302 58.2041 41.9636 55.0156 39.0721C52.9656 37.2129 50.7338 34.2989 49.4909 32.4137C49.162 31.9148 48.8435 31.4232 48.8436 30.5924C48.8435 29.7616 49.1521 29.2902 49.3977 28.9133C50.6198 27.0353 52.9133 24.0194 55.0157 22.1126C58.2041 19.2211 61.0001 18.6547 61.0001 18.6547C61.0001 18.6547 57.7476 18.3266 53.7773 21.5983C51.395 23.5612 48.9236 26.2337 45.6325 27.6517C42.8719 28.841 31.7467 30.5705 31.8893 30.5925C31.7466 30.6143 42.8719 32.3439 45.6325 33.5332C48.9236 34.9511 51.395 37.6236 53.7773 39.5866C57.7476 42.8581 61.0001 42.5302 61.0001 42.5302Z" fill="#EE2400"/>
<path d="M24.4293 13.7917C22.731 12.0935 19.9777 12.0935 18.2796 13.7917C17.4034 14.6679 16.9793 15.8251 17.0073 16.9732C15.8591 16.9453 14.702 17.3694 13.8257 18.2456C12.1276 19.9438 12.1276 22.6972 13.8257 24.3952C14.0455 24.615 14.283 24.8064 14.5337 24.9693L14.5278 24.9753C18.2334 27.5905 26.2038 26.1533 26.2038 26.1533C26.2038 26.1533 27.5037 18.7948 25.2579 14.9475C25.0526 14.5302 24.7764 14.1389 24.4293 13.7917Z" fill="url(#paint0_linear_28_3313)"/>
<path d="M24.4293 13.7917C22.731 12.0935 19.9777 12.0935 18.2796 13.7917C17.4034 14.6679 16.9793 15.8251 17.0073 16.9732C15.8591 16.9453 14.702 17.3694 13.8257 18.2456C12.1276 19.9438 12.1276 22.6972 13.8257 24.3952C14.0455 24.615 14.283 24.8064 14.5337 24.9693L14.5278 24.9753C18.2334 27.5905 26.2038 26.1533 26.2038 26.1533C26.2038 26.1533 27.5037 18.7948 25.2579 14.9475C25.0526 14.5302 24.7764 14.1389 24.4293 13.7917Z" fill="#EE2400"/>
<path d="M13.824 36.2362C12.1257 37.9343 12.1257 40.6876 13.824 42.3858C14.7002 43.262 15.8574 43.6861 17.0054 43.6581C16.9775 44.8063 17.4016 45.9634 18.2778 46.8396C19.9761 48.5378 22.7294 48.5378 24.4274 46.8396C24.6473 46.6199 24.8386 46.3823 25.0015 46.1317L25.0075 46.1376C27.6227 42.4319 26.1856 34.4616 26.1856 34.4616C26.1856 34.4616 18.8271 33.1617 14.9797 35.4076C14.5623 35.6128 14.1711 35.8889 13.824 36.2362Z" fill="url(#paint1_linear_28_3313)"/>
<path d="M13.824 36.2362C12.1257 37.9343 12.1257 40.6876 13.824 42.3858C14.7002 43.262 15.8574 43.6861 17.0054 43.6581C16.9775 44.8063 17.4016 45.9634 18.2778 46.8396C19.9761 48.5378 22.7294 48.5378 24.4274 46.8396C24.6473 46.6199 24.8386 46.3823 25.0015 46.1317L25.0075 46.1376C27.6227 42.4319 26.1856 34.4616 26.1856 34.4616C26.1856 34.4616 18.8271 33.1617 14.9797 35.4076C14.5623 35.6128 14.1711 35.8889 13.824 36.2362Z" fill="#EE2400"/>
<path d="M36.2682 46.8415C37.9665 48.5398 40.7198 48.5398 42.4179 46.8415C43.2941 45.9653 43.7183 44.8081 43.6903 43.6601C44.8384 43.688 45.9955 43.2639 46.8717 42.3877C48.57 40.6895 48.57 37.9361 46.8717 36.238C46.6519 36.0182 46.4144 35.8269 46.1638 35.6639L46.1698 35.658C42.464 33.0428 34.4937 34.4799 34.4937 34.4799C34.4937 34.4799 33.1938 41.8383 35.4396 45.6858C35.6449 46.1032 35.9211 46.4943 36.2682 46.8415Z" fill="#EE2400"/>
<path d="M46.8733 24.3966C48.5715 22.6985 48.5715 19.9452 46.8733 18.2471C45.9971 17.3709 44.8399 16.9466 43.6917 16.9747C43.7198 15.8265 43.2957 14.6694 42.4194 13.7932C40.7212 12.095 37.9678 12.095 36.2698 13.7932C36.05 14.013 35.8587 14.2505 35.6957 14.5011L35.6897 14.4953C33.0745 18.2009 34.5117 26.1712 34.5117 26.1712C34.5117 26.1712 41.8701 27.4712 45.7175 25.2253C46.1349 25.02 46.5261 24.7438 46.8733 24.3966Z" fill="url(#paint2_linear_28_3313)"/>
<path d="M46.8733 24.3966C48.5715 22.6985 48.5715 19.9452 46.8733 18.2471C45.9971 17.3709 44.8399 16.9466 43.6917 16.9747C43.7198 15.8265 43.2957 14.6694 42.4194 13.7932C40.7212 12.095 37.9678 12.095 36.2698 13.7932C36.05 14.013 35.8587 14.2505 35.6957 14.5011L35.6897 14.4953C33.0745 18.2009 34.5117 26.1712 34.5117 26.1712C34.5117 26.1712 41.8701 27.4712 45.7175 25.2253C46.1349 25.02 46.5261 24.7438 46.8733 24.3966Z" fill="#EE2400"/>
<defs>
<linearGradient id="paint0_linear_28_3313" x1="26.0491" y1="26.1698" x2="17.0252" y2="16.9443" gradientUnits="userSpaceOnUse">
<stop stop-color="#F68B28"/>
<stop offset="0.1685" stop-color="#F68828"/>
<stop offset="0.3617" stop-color="#F57E27"/>
<stop offset="0.5671" stop-color="#F36D26"/>
<stop offset="0.781" stop-color="#F05125"/>
<stop offset="1" stop-color="#ED1C24"/>
</linearGradient>
<linearGradient id="paint1_linear_28_3313" x1="26.202" y1="34.6163" x2="16.9765" y2="43.6401" gradientUnits="userSpaceOnUse">
<stop stop-color="#F68B28"/>
<stop offset="0.1685" stop-color="#F68828"/>
<stop offset="0.3617" stop-color="#F57E27"/>
<stop offset="0.5671" stop-color="#F36D26"/>
<stop offset="0.781" stop-color="#F05125"/>
<stop offset="1" stop-color="#ED1C24"/>
</linearGradient>
<linearGradient id="paint2_linear_28_3313" x1="34.4952" y1="26.0166" x2="43.7207" y2="16.9928" gradientUnits="userSpaceOnUse">
<stop stop-color="#F68B28"/>
<stop offset="0.1685" stop-color="#F68828"/>
<stop offset="0.3617" stop-color="#F57E27"/>
<stop offset="0.5671" stop-color="#F36D26"/>
<stop offset="0.781" stop-color="#F05125"/>
<stop offset="1" stop-color="#ED1C24"/>
</linearGradient>
</defs>
</svg>
