<svg width="55" height="56" viewBox="0 0 55 56" fill="none" xmlns="http://www.w3.org/2000/svg">
<path d="M47.2659 31.791C45.2345 33.6924 41.84 37.7819 39.5315 41.2441C36.094 46.4004 27.5002 46.4004 27.5002 46.4004C27.5002 46.4004 18.9065 46.4004 15.469 41.2441C13.1605 37.7819 9.76597 33.6924 7.73462 31.791H15.469C19.2932 33.1596 26.8912 36.9827 27.5002 41.2441C28.1093 36.9827 35.7073 33.1596 39.5315 31.791H47.2659Z" fill="#EE2400"/>
<path d="M52.422 29.2131C52.422 29.2131 45.547 36.9474 34.3751 30.9318C34.3751 30.9318 31.797 32.6506 27.5001 32.6506C23.2032 32.6506 20.6251 30.9318 20.6251 30.9318C9.45325 36.9474 2.57825 29.2131 2.57825 29.2131C4.297 29.2131 18.9064 19.7599 21.4845 19.7599C24.0626 19.7599 27.5001 24.0568 27.5001 24.0568C27.5001 24.0568 30.9376 19.7599 33.5157 19.7599C36.0939 19.7599 50.7032 29.2131 52.422 29.2131ZM49.697 9.58408C49.0373 8.96839 48.1684 8.62598 47.266 8.62598C46.3636 8.62598 45.4948 8.96839 44.835 9.58408L43.8282 10.5422L42.8217 9.58408C42.1619 8.96839 41.2931 8.62598 40.3907 8.62598C39.4883 8.62598 38.6195 8.96839 37.9597 9.58408C37.6422 9.8801 37.389 10.2383 37.2159 10.6364C37.0428 11.0345 36.9535 11.4639 36.9535 11.898C36.9535 12.3321 37.0428 12.7615 37.2159 13.1596C37.389 13.5577 37.6422 13.9159 37.9597 14.2119L43.8282 19.7979L49.6967 14.2119C50.0142 13.9159 50.2674 13.5577 50.4406 13.1597C50.6137 12.7616 50.703 12.3322 50.7031 11.8981C50.7031 11.464 50.6138 11.0345 50.4407 10.6364C50.2676 10.2383 50.0145 9.88012 49.697 9.58408Z" fill="#E10071"/>
</svg>
