<svg width="55" height="51" viewBox="0 0 55 51" fill="none" xmlns="http://www.w3.org/2000/svg">
<path d="M27.5 50.7623L23.5125 47.1873C18.8833 43.0165 15.0562 39.4186 12.0312 36.3936C9.00625 33.3686 6.6 30.6529 4.8125 28.2467C3.025 25.8404 1.77604 23.629 1.06563 21.6123C0.355208 19.5956 0 17.5331 0 15.4248C0 11.1165 1.44375 7.51855 4.33125 4.63105C7.21875 1.74355 10.8167 0.299805 15.125 0.299805C17.5083 0.299805 19.7771 0.803971 21.9312 1.8123C24.0854 2.82064 25.9417 4.24147 27.5 6.0748C29.0583 4.24147 30.9146 2.82064 33.0688 1.8123C35.2229 0.803971 37.4917 0.299805 39.875 0.299805C44.1833 0.299805 47.7813 1.74355 50.6688 4.63105C53.5563 7.51855 55 11.1165 55 15.4248C55 17.5331 54.6448 19.5956 53.9344 21.6123C53.224 23.629 51.975 25.8404 50.1875 28.2467C48.4 30.6529 45.9938 33.3686 42.9688 36.3936C39.9437 39.4186 36.1167 43.0165 31.4875 47.1873L27.5 50.7623Z" fill="#ED133B"/>
<g clip-path="url(#clip0_28_3335)">
<path d="M13.6329 30.3988C13.9026 30.623 14.6793 30.402 14.9441 30.3028C14.6305 30.1972 14.3234 30.2704 14.0618 30.0803C14.4257 29.4889 16.2829 30.0199 17.001 29.7047C17.0351 29.6965 17.464 29.378 17.464 29.378C17.5355 29.0725 17.1195 28.9914 17.1211 28.8467C17.1341 28.447 17.9855 28.3885 18.3949 28.2909C18.8385 28.1853 19.4689 28.1072 19.7451 27.753C20.0472 27.3565 20.0342 26.999 20.455 26.6464C21.2283 25.9574 21.87 25.6242 22.4077 24.7029C22.6855 24.2041 22.7294 24.0854 23.3338 24.0496C23.5466 24.035 23.5776 24.3161 23.8343 24.1828C24.0308 24.0999 23.9577 23.7928 24.0698 23.658C24.4321 23.2111 24.7879 23.3427 25.2331 23.0924C25.6782 22.8421 25.8049 22.1629 25.9462 21.6966C26.432 21.6169 26.6807 22.2067 27.2607 22.0685C27.7806 21.9807 28.0665 21.516 28.5621 21.3258C29.1941 21.1032 29.61 21.1844 30.151 20.731C30.5377 20.3865 30.8756 19.8373 31.3711 19.6471C31.8327 20.2222 31.6492 21.4197 32.4161 21.3091C32.663 21.2864 34.3787 20.0123 33.8897 21.1384C34.3674 21.0246 35.3033 21.018 35.4609 20.6199C35.4788 21.3007 36.015 21.2811 36.5609 21.151C37.0646 20.995 37.4318 20.8715 37.9598 20.8178C38.522 20.756 38.8892 20.6325 39.1491 20.21C39.383 19.8298 39.3813 19.2172 39.8427 19.0352C40.0085 19.4284 39.5602 20.725 40.5464 20.0213C40.9753 19.7028 40.9833 18.9798 41.1669 18.5395C41.3262 18.7539 41.4172 18.9846 41.4822 19.2576C42.1792 19.3079 42.1206 18.4565 41.9386 17.9951C41.8265 18.1299 41.7323 18.1884 41.7973 18.4614C41.305 18.3623 41.4138 17.7595 41.196 17.4508C41.1083 17.6881 41.3797 17.7677 41.1652 17.9269C40.3024 17.4834 39.7239 16.7199 38.7831 16.4031C38.2745 16.2358 37.7399 16.1108 37.2395 15.9776C36.7309 15.8103 36.3344 15.5082 35.8177 15.3067C34.9451 14.9738 33.9426 14.852 32.9905 14.7904C31.8937 14.7272 31.2779 14.2609 30.3387 13.7996C29.4418 13.3642 28.2183 13.223 27.2629 13.4506C26.7511 13.5725 26.332 13.7806 25.9193 14.1673C25.5326 14.5118 25.3394 15.0626 24.9446 15.373C24.0007 16.1027 22.8161 15.5195 21.8445 15.6789C20.7023 15.8788 19.8397 16.9497 19.1411 17.8012C17.9942 19.1921 17.0211 21.0104 16.4153 22.7051C16.2577 23.1032 16.1505 23.5614 15.9085 23.9075C15.6664 24.2536 15.2213 24.5039 15.0556 24.8679C14.9077 25.1555 14.8591 25.7079 14.8981 26.0231C14.9436 26.517 15.1728 26.5706 15.2963 26.9378C14.9713 27.0873 14.4286 26.9282 14.2727 27.1817C15.1534 27.5488 13.8909 27.8495 13.6749 28.1534C13.5108 28.3727 13.1437 29.2534 13.1665 29.5004C13.7433 29.6514 13.3632 30.1746 13.6329 30.3988ZM37.8864 18.2393L37.9368 18.2994C38.689 17.9759 38.2326 19.2385 38.0084 19.5082C37.5762 19.3588 37.4331 18.4554 37.8864 18.2393ZM33.797 20.2951C33.7027 19.5965 34.2291 18.9302 34.203 18.2153C34.1623 17.2876 34.8171 18.069 34.6141 18.7303C34.5411 19.1804 34.4161 20.4721 33.797 20.2951ZM26.0839 18.4909C26.0725 17.9888 26.4543 18.0781 26.6818 18.2763C26.8589 18.4144 26.9809 18.9262 27.0719 19.1569C27.3027 19.8231 27.6521 20.5331 27.7464 21.2317C27.2086 21.3959 25.5364 18.7655 26.0839 18.4909ZM25.2144 16.3544C25.64 15.5679 26.4624 17.3551 26.3324 17.5663C25.9523 18.0896 24.8846 16.9377 25.2144 16.3544ZM24.7014 19.6495C24.7891 19.4123 25.0117 19.2871 25.2586 19.2644C25.322 19.6819 25.6844 19.9922 25.7137 20.4179C25.3628 20.6097 24.7826 19.9907 24.7014 19.6495ZM23.6762 20.7951C23.6502 20.0802 24.2985 20.6829 24.4497 20.8633C24.6512 21.1037 24.8511 21.4888 24.9843 21.7455C24.479 22.0461 23.6796 21.2631 23.6762 20.7951ZM22.4772 21.5134C22.487 21.4029 22.5893 21.3785 22.7323 21.5248C22.9598 21.723 23.3742 21.9488 23.652 22.2071C23.8032 22.3874 23.9202 22.5759 23.9007 22.7968C23.7774 23.944 22.8446 22.9042 22.6707 22.4769C22.6041 22.3485 22.4236 21.7425 22.4772 21.5134ZM18.2888 24.0616C17.7153 24.3785 16.7241 24.0017 16.6899 23.2526C16.8784 23.1356 17.1253 23.1128 17.2602 23.2249C17.1839 23.2071 17.1237 23.2575 17.0815 23.2315C17.0961 23.4443 18.0889 23.6765 18.2888 24.0616ZM17.3839 25.1064C17.7543 24.6937 18.7439 25.2151 18.8057 25.7773C18.4466 25.935 17.5838 25.4915 17.3839 25.1064ZM17.4037 27.1569C17.7157 27.4071 18.3623 27.3973 18.468 27.8408C18.0309 28.1252 17.5434 27.5924 17.4037 27.1569Z" fill="white"/>
<path d="M17.6611 33.0806C18.0771 33.1618 18.3972 33.4461 18.7953 33.6036C19.2275 33.753 19.6954 33.7497 20.2056 33.7724C20.5713 34.5507 24.6837 35.0132 24.5081 33.9734C25.0102 33.962 25.6488 34.6752 26.1233 34.8506C26.7586 35.0959 27.4166 34.8309 28.0649 34.6765C29.6002 34.3107 30.9147 33.9255 32.3168 33.3031C33.2916 32.8545 34.5849 32.8348 35.2754 31.9492C35.5857 31.5869 35.5824 31.1189 35.7318 30.6867C35.9332 30.17 36.1818 30.0026 36.5603 29.624C36.921 29.3218 37.0542 28.8213 37.3807 28.5272C37.7934 28.1404 38.1329 28.2038 38.479 27.6887C38.747 27.3003 38.9793 27.0647 38.8054 26.6374C38.5649 26.0817 37.6794 26.1484 37.6874 25.4254C38.2496 25.3636 38.6299 26.3547 39.1239 26.3091C39.4391 26.2701 39.8484 25.4154 39.928 25.1441C40.1034 24.6696 39.923 24.0636 40.1748 23.607C40.4444 23.074 40.9124 23.0707 40.6312 22.3445C40.0528 22.338 40.2542 21.8213 39.848 21.6296C39.315 21.36 39.2062 21.9628 38.8309 22.0522C38.4214 22.1497 38.2053 21.6964 37.8056 21.6835C37.2613 21.6689 37.1444 22.2376 36.7268 22.301C36.3775 22.3482 36.0671 21.9534 35.7795 21.8056C35.331 21.5879 35.3213 21.6984 34.8777 21.8041C34.3237 21.9 32.9475 21.7231 32.8436 22.6492C32.8046 23.0912 32.1758 23.0246 32.3075 23.4259C32.431 23.7931 32.9867 23.5526 32.9543 24.1733C32.3514 24.0645 32.0508 23.5592 31.5846 24.175C31.1443 24.7486 31.0972 25.1565 30.2199 25.2573C29.5894 25.3354 29.1052 25.2704 29.3101 25.9788C29.3995 26.3541 30.3176 27.1811 29.5572 27.4704C29.4678 27.095 28.9542 25.8473 28.5984 25.7157C28.158 25.5321 26.9606 26.1058 26.8713 26.4877C27.0647 26.694 27.3165 26.9946 27.4157 27.2594C26.9136 27.2708 26.7884 26.2911 26.1207 26.6665C26.1418 27.0581 26.4782 27.4106 26.397 27.8266C26.1843 28.5984 25.7162 27.8445 25.4481 27.4757C25.0207 26.8925 24.8842 26.925 24.2733 26.7821C23.1619 26.506 22.5476 25.8951 21.6168 26.9822C21.1944 27.4795 20.9702 27.7492 20.4812 28.1181C20.0523 28.4366 20.0133 28.8786 19.677 29.2832C19.4009 29.6374 18.9134 29.8617 18.4943 30.0697C17.8948 30.4289 17.911 30.4971 17.9371 31.212C17.7778 30.9976 17.5487 30.944 17.3262 31.0691C17.3376 31.5712 17.2483 31.953 17.1671 32.369C17.0486 33.0823 17.0502 32.9377 17.6611 33.0806ZM32.823 27.5577C32.5761 27.5805 32.399 27.4424 32.178 27.4229C32.2251 27.7723 32.451 28.1151 32.1423 28.3328C31.7702 28.133 31.1641 27.5563 31.1608 27.0883C31.1705 26.2207 31.7035 27.2475 32.1568 27.0314C32.1324 26.929 32.1844 26.8445 32.16 26.7421C32.1942 26.734 32.2217 26.5472 32.2136 26.513C32.4395 26.8559 32.7694 27.0297 32.823 27.5577ZM31.6891 29.3061C31.7639 29.4686 31.9232 29.6831 32.0938 29.6424C32.5796 29.5627 32.1408 29.2346 32.2708 29.0233C32.4706 28.6512 32.9743 28.4952 33.2587 28.9322C33.1562 28.1995 34.0385 28.422 33.9182 27.7656C33.9864 27.7493 34.0205 27.7412 34.0807 27.6908C34.0514 27.2651 33.7864 26.6071 33.5524 26.2302C33.3688 25.9134 32.5401 25.4618 32.6895 25.0296C33.0241 24.0124 34.1536 26.4836 34.2772 26.8508C34.4007 27.2179 34.3715 27.5494 34.6559 27.9864C34.924 28.3552 35.2181 28.6818 35.3839 29.075C34.9436 28.8914 34.8379 28.4479 34.508 28.2741C34.8152 28.9581 34.1636 28.6445 33.9394 28.9143C33.7234 29.2182 34.1946 29.6828 34.0387 29.9363C33.6845 30.4173 33.4244 29.3254 33.3058 29.2816C32.8817 29.1663 32.8087 29.6163 32.9501 29.9072C32.8737 29.8893 32.7713 29.9137 32.6868 29.8617C32.7925 30.3052 33.0688 30.7082 33.0981 31.1339C32.4693 31.0673 32.1815 29.4052 31.5593 30.2745C31.4439 29.9415 30.9661 29.2981 31.6891 29.3061ZM30.3631 27.675L30.5402 27.8131C30.7791 27.7562 31.2325 29.0543 30.698 28.9293C30.2901 28.8822 30.3436 27.896 30.3631 27.675ZM28.1274 27.5225C28.4864 27.3649 28.4069 27.6362 28.532 27.8588C28.7238 28.2097 28.7271 28.6777 28.7401 29.0351C28.2039 29.0547 28.1437 28.3479 27.978 27.9547C27.8447 27.698 27.8967 27.6135 28.1274 27.5225ZM22.5953 30.0302C22.6748 29.7589 22.8048 29.5476 22.8161 29.2926C22.8616 29.0293 22.4667 28.5826 22.7819 28.5435C23.0142 28.3079 23.3344 28.5922 23.3734 28.9074C22.4148 29.4242 23.7929 31.728 22.9919 31.8467C22.7091 31.2651 22.4523 30.6412 22.5953 30.0302ZM21.7293 30.6331L21.6253 30.8021C21.9584 30.6867 22.186 31.6421 21.7619 31.5268C21.3801 31.4375 21.4044 30.7827 21.7293 30.6331ZM19.825 30.5099C20.0607 30.7422 20.0997 31.0574 20.1046 31.3807C20.2459 30.9144 19.9274 30.4855 20.0947 29.9769C20.2181 29.5869 20.6113 29.4212 20.582 28.9955C20.6405 29.0897 20.7526 28.9548 20.7266 28.9971C20.9136 29.7818 20.9396 30.4967 21.1948 31.2652C21.2777 31.4618 21.6011 32.2141 21.1592 32.1751C20.8618 32.1378 20.8601 31.5253 20.6489 31.3953C20.6782 31.821 20.2493 32.1395 19.8236 32.1688C19.8968 32.4759 20.0885 32.8268 19.671 32.8902C19.1916 32.3915 19.2499 30.9714 19.825 30.5099Z" fill="white"/>
</g>
<g clip-path="url(#clip1_28_3335)">
<path d="M37.8939 11.3787C37.9413 11.442 38.1231 11.4344 38.1863 11.4266C38.1231 11.387 38.052 11.3869 38.0047 11.3315C38.1155 11.221 38.4946 11.435 38.6685 11.4037C38.6764 11.4037 38.7872 11.3564 38.7872 11.3564C38.8189 11.2932 38.732 11.2536 38.7399 11.222C38.7638 11.1351 38.9534 11.167 39.0483 11.1671C39.1511 11.1673 39.2933 11.1833 39.3724 11.1202C39.4595 11.0492 39.4754 10.9702 39.5862 10.9151C39.7919 10.8047 39.95 10.7655 40.1163 10.5918C40.2034 10.4971 40.2192 10.4734 40.3536 10.4974C40.401 10.5053 40.393 10.5686 40.4562 10.5528C40.5037 10.545 40.5038 10.4739 40.5354 10.4502C40.6383 10.3713 40.7094 10.4189 40.8201 10.3874C40.9308 10.356 40.9943 10.2138 41.0498 10.1191C41.1604 10.1271 41.1839 10.2695 41.3183 10.2697C41.4368 10.2778 41.5239 10.1909 41.6425 10.1753C41.7927 10.1598 41.8796 10.1994 42.022 10.1285C42.1248 10.0733 42.2277 9.97075 42.3463 9.95513C42.4172 10.1054 42.3141 10.3582 42.4879 10.3743C42.5433 10.3823 42.9862 10.1933 42.8199 10.4143C42.9305 10.4145 43.1359 10.4623 43.1914 10.3833C43.1595 10.5334 43.2781 10.5573 43.4045 10.5575C43.5231 10.5498 43.6101 10.5421 43.7286 10.5581C43.8551 10.5741 43.942 10.5663 44.0212 10.4874C44.0924 10.4164 44.1243 10.282 44.235 10.2664C44.2506 10.3613 44.0842 10.6219 44.3373 10.5195C44.448 10.4723 44.4878 10.3142 44.5512 10.2274C44.5748 10.2828 44.5826 10.3381 44.5825 10.4013C44.7326 10.449 44.7646 10.2593 44.7489 10.1487C44.7173 10.1723 44.6935 10.1802 44.6934 10.2434C44.5908 10.1958 44.6463 10.0695 44.6148 9.99036C44.5831 10.0377 44.6384 10.0694 44.583 10.0931C44.4173 9.95052 44.3306 9.75278 44.1411 9.63391C44.0385 9.57051 43.9279 9.51501 43.8252 9.45951C43.7226 9.39612 43.6516 9.30905 43.5489 9.23775C43.3752 9.11891 43.1619 9.03953 42.9565 8.97597C42.7195 8.90445 42.6091 8.7699 42.4275 8.61943C42.2538 8.47688 41.9931 8.38161 41.7718 8.38126C41.6533 8.38107 41.5505 8.40462 41.4397 8.46768C41.3369 8.52284 41.2655 8.63339 41.1627 8.68065C40.9175 8.79092 40.6886 8.60085 40.4673 8.58469C40.2065 8.56847 39.9611 8.75778 39.7633 8.90765C39.4388 9.15216 39.13 9.49946 38.9081 9.83899C38.8527 9.91795 38.8051 10.0127 38.7339 10.0758C38.6626 10.139 38.5519 10.1704 38.4965 10.2415C38.449 10.2967 38.4092 10.4152 38.4012 10.4863C38.3852 10.597 38.4326 10.6208 38.4404 10.7077C38.3613 10.7234 38.2508 10.66 38.2033 10.7073C38.377 10.8341 38.0845 10.8336 38.0212 10.8889C37.9737 10.9283 37.8469 11.102 37.839 11.1573C37.9574 11.2207 37.8466 11.3154 37.8939 11.3787ZM43.8481 9.98914L43.856 10.005C44.0378 9.97363 43.8714 10.2263 43.8081 10.2736C43.7213 10.2182 43.7374 10.0127 43.8481 9.98914ZM42.8439 10.2247C42.8599 10.0666 43.0103 9.94828 43.0422 9.79025C43.082 9.5848 43.1844 9.79047 43.1052 9.92472C43.0655 10.0195 42.9702 10.296 42.8439 10.2247ZM41.2485 9.42379C41.2724 9.31317 41.3513 9.35282 41.3908 9.40821C41.4223 9.44778 41.4221 9.56635 41.43 9.62169C41.4455 9.7798 41.4848 9.95376 41.4687 10.1118C41.3422 10.1195 41.114 9.4552 41.2485 9.42379ZM41.1702 8.90989C41.3049 8.75992 41.3911 9.19479 41.3515 9.23425C41.2407 9.32893 41.0673 9.02038 41.1702 8.90989ZM40.8846 9.60501C40.9163 9.55764 40.9716 9.54192 41.0269 9.54991C41.0189 9.64475 41.082 9.73179 41.066 9.82662C40.979 9.8502 40.8845 9.68405 40.8846 9.60501ZM40.5997 9.80217C40.6316 9.64413 40.742 9.8103 40.7656 9.85776C40.7971 9.92104 40.8207 10.0159 40.8364 10.0792C40.7099 10.1185 40.5758 9.90488 40.5997 9.80217ZM40.2992 9.89654C40.3071 9.87284 40.3309 9.87288 40.3545 9.91244C40.3939 9.96783 40.4729 10.0391 40.5202 10.1103C40.5438 10.1578 40.5596 10.2052 40.5437 10.2526C40.4563 10.4975 40.3066 10.2206 40.2909 10.1178C40.2831 10.0862 40.2754 9.94393 40.2992 9.89654ZM39.2474 10.2347C39.105 10.274 38.9077 10.1394 38.9395 9.97342C38.987 9.95768 39.0423 9.96568 39.066 9.99733C39.0502 9.9894 39.0344 9.99728 39.0265 9.98936C39.0185 10.0368 39.2238 10.1399 39.2474 10.2347ZM38.9942 10.4161C39.097 10.3452 39.2865 10.5115 39.2705 10.6379C39.1835 10.6536 39.0177 10.511 38.9942 10.4161ZM38.8907 10.8665C38.9459 10.9378 39.0881 10.9696 39.088 11.0724C38.9772 11.1117 38.8984 10.9693 38.8907 10.8665Z" fill="white"/>
<path d="M38.6356 12.178C38.7225 12.2177 38.7777 12.2968 38.8566 12.3522C38.9435 12.4077 39.0462 12.4316 39.1568 12.4634C39.1961 12.6532 40.0729 12.9707 40.0891 12.7336C40.1997 12.7575 40.3022 12.9474 40.3969 13.0108C40.5233 13.0979 40.6814 13.0744 40.8316 13.0747C41.1873 13.0753 41.4956 13.0599 41.8355 12.9972C42.0728 12.9502 42.3572 13.0139 42.5551 12.8561C42.6421 12.793 42.666 12.6903 42.7215 12.6034C42.7928 12.5008 42.856 12.4772 42.9589 12.4141C43.0538 12.3668 43.1093 12.2642 43.1963 12.2169C43.3071 12.1538 43.3782 12.1856 43.4811 12.0909C43.5602 12.0199 43.6235 11.9804 43.6079 11.8777C43.5844 11.7432 43.3868 11.7113 43.4266 11.5533C43.5531 11.5693 43.5843 11.8065 43.6949 11.8225C43.7661 11.8305 43.9007 11.6647 43.9324 11.6094C43.9958 11.5147 43.9881 11.3724 44.0673 11.2856C44.1544 11.1829 44.2571 11.2068 44.2337 11.0329C44.1073 11.0011 44.1786 10.8984 44.0996 10.8351C43.997 10.748 43.9415 10.8743 43.8545 10.8742C43.7597 10.874 43.7361 10.7634 43.6492 10.7395C43.5307 10.7077 43.4752 10.8262 43.3804 10.8181C43.3013 10.8101 43.2541 10.7073 43.1988 10.6597C43.112 10.5885 43.104 10.6122 43.0013 10.612C42.8748 10.6039 42.5825 10.4928 42.5111 10.6903C42.4793 10.7851 42.345 10.7374 42.3528 10.8323C42.3605 10.9192 42.495 10.8957 42.4552 11.0301C42.3288 10.9745 42.2895 10.848 42.155 10.9584C42.0283 11.061 41.9966 11.1479 41.799 11.1239C41.6568 11.1078 41.5541 11.0681 41.5617 11.2341C41.5616 11.3211 41.7193 11.5506 41.5374 11.574C41.5376 11.487 41.4906 11.1866 41.4196 11.1391C41.3327 11.0757 41.0402 11.1385 41.0005 11.2174C41.0321 11.2728 41.0714 11.3519 41.0793 11.4152C40.9686 11.3913 40.9927 11.17 40.8266 11.2172C40.8107 11.3041 40.8659 11.399 40.8262 11.4859C40.739 11.6439 40.6761 11.4541 40.6367 11.3591C40.5737 11.2089 40.5421 11.2088 40.4157 11.1454C40.1867 11.0264 40.0842 10.8603 39.823 11.0496C39.7043 11.1363 39.641 11.1837 39.5145 11.2388C39.4037 11.286 39.372 11.3808 39.277 11.4518C39.1979 11.5149 39.0793 11.5385 38.9765 11.562C38.8262 11.6092 38.8262 11.625 38.7943 11.783C38.7707 11.7277 38.7233 11.7039 38.668 11.7196C38.6441 11.8302 38.6044 11.9092 38.5648 11.9961C38.5013 12.1462 38.5092 12.1146 38.6356 12.178ZM42.2485 11.7648C42.1932 11.7568 42.1617 11.7173 42.1143 11.7014C42.1062 11.7804 42.1377 11.8674 42.0586 11.8989C41.9876 11.8356 41.8851 11.6773 41.909 11.5746C41.9567 11.385 42.0195 11.638 42.1302 11.6145C42.1302 11.5907 42.1461 11.575 42.1461 11.5512C42.154 11.5513 42.1699 11.5118 42.1699 11.5039C42.2014 11.5909 42.2645 11.6463 42.2485 11.7648ZM41.9081 12.0884C41.916 12.1279 41.9396 12.1833 41.9791 12.1833C42.0898 12.1914 42.0109 12.0964 42.0505 12.057C42.1138 11.9859 42.2324 11.9782 42.2717 12.0889C42.2878 11.923 42.4695 12.0181 42.4776 11.868C42.4934 11.868 42.5013 11.868 42.5171 11.8601C42.5331 11.7653 42.5096 11.6072 42.4782 11.5123C42.4546 11.4332 42.2967 11.2906 42.3522 11.2038C42.479 10.9985 42.5966 11.5994 42.6044 11.6864C42.6121 11.7733 42.5883 11.8444 42.6276 11.9551C42.667 12.0501 42.7143 12.1371 42.73 12.2319C42.6431 12.1686 42.6433 12.0658 42.5801 12.0104C42.6115 12.1764 42.4852 12.0735 42.4219 12.1208C42.3585 12.176 42.4374 12.3026 42.3899 12.35C42.287 12.4368 42.2874 12.1838 42.2637 12.168C42.1768 12.1204 42.1372 12.2152 42.1529 12.2864C42.1371 12.2784 42.1133 12.2784 42.0976 12.2626C42.0974 12.3653 42.1368 12.4681 42.1208 12.563C41.9865 12.5153 42.0108 12.136 41.8288 12.2937C41.821 12.2147 41.7501 12.0486 41.9081 12.0884ZM41.7033 11.6612L41.7349 11.7008C41.7902 11.7009 41.8213 12.0092 41.7107 11.9537C41.6238 11.9219 41.6874 11.7086 41.7033 11.6612ZM41.2214 11.5103C41.3084 11.4946 41.2766 11.5499 41.2924 11.6052C41.3159 11.6922 41.2921 11.7949 41.2761 11.8739C41.1576 11.85 41.1816 11.692 41.1659 11.5971C41.1502 11.5339 41.166 11.5181 41.2214 11.5103ZM39.8772 11.769C39.9089 11.7137 39.9485 11.6742 39.9644 11.6189C39.9882 11.5636 39.9252 11.445 39.9963 11.453C40.0596 11.4136 40.1148 11.4927 40.1068 11.5638C39.8696 11.6267 40.0504 12.204 39.8687 12.1879C39.8373 12.0455 39.8138 11.8953 39.8772 11.769ZM39.6558 11.8556L39.6241 11.8871C39.7032 11.8793 39.7028 12.1007 39.6159 12.0531C39.537 12.0134 39.5767 11.8712 39.6558 11.8556ZM39.245 11.7284C39.2844 11.7917 39.2764 11.8629 39.2604 11.934C39.3159 11.8392 39.2687 11.7285 39.3321 11.6258C39.3796 11.5468 39.4745 11.5312 39.4905 11.4364C39.4983 11.4601 39.53 11.4364 39.5221 11.4443C39.5218 11.6261 39.4899 11.7841 39.5054 11.966C39.5132 12.0134 39.5446 12.1953 39.4498 12.1635C39.3866 12.1397 39.4184 12.0054 39.3789 11.9658C39.363 12.0606 39.2523 12.1078 39.1574 12.0919C39.1573 12.163 39.1809 12.25 39.086 12.242C39.0072 12.1075 39.0947 11.7993 39.245 11.7284Z" fill="white"/>
</g>
<defs>
<clipPath id="clip0_28_3335">
<rect width="30.8656" height="30.8656" fill="white" transform="translate(9.04102 12.6353) rotate(-13.3993)"/>
</clipPath>
<clipPath id="clip1_28_3335">
<rect width="6.95578" height="6.95578" fill="white" transform="translate(37.8214 7.24463) rotate(0.0912537)"/>
</clipPath>
</defs>
</svg>
