<svg width="41" height="41" viewBox="0 0 41 41" fill="none" xmlns="http://www.w3.org/2000/svg">
<path d="M20.544 41.0001H20.456C9.45236 41.0001 0.5 32.045 0.5 21.0382V20.9502C0.5 9.9433 9.45236 0.988281 20.456 0.988281H20.544C31.5476 0.988281 40.5 9.9433 40.5 20.9502V21.0382C40.5 32.045 31.5476 41.0001 20.544 41.0001ZM20.456 2.34264C10.1984 2.34264 1.85396 10.6895 1.85396 20.9502V21.0382C1.85396 31.2988 10.1984 39.6457 20.456 39.6457H20.544C30.8016 39.6457 39.146 31.2988 39.146 21.0382V20.9502C39.146 10.6895 30.8016 2.34264 20.544 2.34264H20.456Z" fill="#2F1C1F"/>
<path d="M8.49654 20.3351C8.55069 20.308 8.60488 20.2822 8.65768 20.2579C9.57567 19.8326 10.5058 19.4344 11.4347 19.0362C11.4847 19.0362 11.5687 18.978 11.6161 18.959C11.6878 18.9279 11.7596 18.8981 11.8314 18.8669C11.9695 18.8073 12.1076 18.7491 12.2443 18.6895C12.5205 18.5717 12.7954 18.4538 13.0716 18.336C13.6226 18.1004 14.1737 17.8647 14.7247 17.6277C15.8269 17.1564 16.9304 16.6837 18.0325 16.2124C19.1346 15.7411 20.2381 15.2684 21.3402 14.7971C22.4423 14.3258 23.5458 13.8531 24.6479 13.3818C25.75 12.9105 26.8535 12.4378 27.9557 11.9665C28.2007 11.8608 28.4661 11.7037 28.7288 11.6577C28.9495 11.6184 29.1647 11.5426 29.3868 11.5006C29.8079 11.4207 30.2723 11.3882 30.6757 11.5629C30.8152 11.6238 30.9438 11.7091 31.0508 11.8161C31.5626 12.3227 31.4908 13.1542 31.3825 13.8666C30.6284 18.8317 29.8742 23.7981 29.1187 28.7632C29.0158 29.4445 28.875 30.1921 28.3375 30.6227C27.8825 30.9871 27.2353 31.0277 26.6734 30.8733C26.1115 30.7176 25.616 30.3912 25.1299 30.0702C23.1139 28.7348 21.0965 27.3994 19.0805 26.064C18.6012 25.7471 18.0677 25.3326 18.0731 24.757C18.0758 24.4103 18.283 24.1015 18.4942 23.8266C20.2462 21.5404 22.774 19.9694 24.6547 17.7889C24.9201 17.4814 25.1286 16.9261 24.7644 16.7487C24.5477 16.6431 24.2986 16.7866 24.1009 16.9234C21.615 18.6502 19.1306 20.3784 16.6447 22.1052C15.8337 22.6686 14.9834 23.2483 14.0058 23.3864C13.1312 23.511 12.2511 23.2672 11.4049 23.018C10.6954 22.8095 9.98725 22.5955 9.28184 22.3747C8.90679 22.2582 8.51956 22.1323 8.22981 21.8682C7.94006 21.6041 7.77355 21.1599 7.94821 20.8077C8.05788 20.587 8.27046 20.4475 8.49386 20.3337L8.49654 20.3351Z" fill="#2F1C1F"/>
</svg>
