<svg width="144" height="102" viewBox="0 0 144 102" fill="none" xmlns="http://www.w3.org/2000/svg">
<g clip-path="url(#clip0_159_10446)">
<path d="M57.2344 69.3281L96.0469 49.2188L57.2344 28.9688V69.3281Z" fill="white"/>
<path d="M142.453 21.9797C142.453 21.9797 141.047 12.0797 136.744 7.72036C131.288 1.99692 125.156 1.9688 122.358 1.6313C102.248 0.182861 72.0985 0.182861 72.0985 0.182861H72.0422C72.0422 0.182861 41.8922 0.182861 21.7829 1.6313C18.9844 1.9688 12.8532 1.99692 7.39692 7.72036C3.0938 12.0797 1.68755 21.9797 1.68755 21.9797C1.68755 21.9797 0.253174 33.5954 0.253174 45.2251V56.1235C0.253174 67.7532 1.68755 79.3688 1.68755 79.3688C1.68755 79.3688 3.0938 89.2688 7.39692 93.6282C12.8672 99.3516 20.0391 99.1688 23.2313 99.7735C34.7204 100.87 72.0704 101.222 72.0704 101.222C72.0704 101.222 102.248 101.18 122.358 99.7172C125.17 99.3797 131.288 99.3516 136.744 93.6282C141.047 89.2688 142.453 79.3688 142.453 79.3688C142.453 79.3688 143.888 67.7391 143.888 56.1235V45.2251C143.888 33.5954 142.453 21.9797 142.453 21.9797ZM57.2344 69.3282V28.9688L96.0469 49.2188L57.2344 69.3282Z" fill="url(#paint0_linear_159_10446)"/>
</g>
<defs>
<linearGradient id="paint0_linear_159_10446" x1="72.0704" y1="0.182861" x2="72.0704" y2="101.222" gradientUnits="userSpaceOnUse">
<stop stop-color="#E52D27"/>
<stop offset="1" stop-color="#BF171D"/>
</linearGradient>
<clipPath id="clip0_159_10446">
<rect width="144" height="101.391" fill="white"/>
</clipPath>
</defs>
</svg>
