<svg width="41" height="41" viewBox="0 0 41 41" fill="none" xmlns="http://www.w3.org/2000/svg">
<path d="M20.544 41.0001H20.456C9.45238 41.0001 0.5 32.045 0.5 21.0382V20.9502C0.5 9.9433 9.45238 0.988281 20.456 0.988281H20.544C31.5476 0.988281 40.5 9.9433 40.5 20.9502V21.0382C40.5 32.045 31.5476 41.0001 20.544 41.0001ZM20.456 2.34264C10.1984 2.34264 1.85396 10.6895 1.85396 20.9502V21.0382C1.85396 31.2988 10.1984 39.6457 20.456 39.6457H20.544C30.8016 39.6457 39.146 31.2988 39.146 21.0382V20.9502C39.146 10.6895 30.8016 2.34264 20.544 2.34264H20.456Z" fill="#2F1C1F"/>
<path d="M9.0145 10.4166L17.9263 22.3349L8.95898 32.0253H10.9777L18.8293 23.5417L25.1726 32.0253H32.0413L22.6285 19.4366L30.9757 10.4166H28.9569L21.7268 18.2298L15.8845 10.4166H9.01584H9.0145ZM11.9824 11.9036H15.1371L29.0707 30.5382H25.916L11.9824 11.9036Z" fill="#2F1C1F"/>
</svg>
