<svg width="34" height="34" viewBox="0 0 34 34" fill="none" xmlns="http://www.w3.org/2000/svg">
<mask id="mask0_47_8644" style="mask-type:alpha" maskUnits="userSpaceOnUse" x="0" y="0" width="34" height="34">
<rect x="0.200195" y="0.200134" width="33.6" height="33.6" fill="#D9D9D9"/>
</mask>
<g mask="url(#mask0_47_8644)">
<path d="M17 31.0001C15.0633 31.0001 13.2433 30.6326 11.54 29.8976C9.83667 29.1626 8.355 28.1651 7.095 26.9051C5.835 25.6451 4.8375 24.1635 4.1025 22.4601C3.3675 20.7568 3 18.9368 3 17.0001C3 15.0635 3.3675 13.2435 4.1025 11.5401C4.8375 9.83679 5.835 8.35512 7.095 7.09512C8.355 5.83512 9.83667 4.83762 11.54 4.10262C13.2433 3.36762 15.0633 3.00012 17 3.00012C18.9367 3.00012 20.7567 3.36762 22.46 4.10262C24.1633 4.83762 25.645 5.83512 26.905 7.09512C28.165 8.35512 29.1625 9.83679 29.8975 11.5401C30.6325 13.2435 31 15.0635 31 17.0001V19.0301C31 20.4068 30.5275 21.5793 29.5825 22.5476C28.6375 23.516 27.4767 24.0001 26.1 24.0001C25.2833 24.0001 24.5133 23.8251 23.79 23.4751C23.0667 23.1251 22.46 22.6235 21.97 21.9701C21.2933 22.6468 20.5292 23.1543 19.6775 23.4926C18.8258 23.831 17.9333 24.0001 17 24.0001C15.0633 24.0001 13.4125 23.3176 12.0475 21.9526C10.6825 20.5876 10 18.9368 10 17.0001C10 15.0635 10.6825 13.4126 12.0475 12.0476C13.4125 10.6826 15.0633 10.0001 17 10.0001C18.9367 10.0001 20.5875 10.6826 21.9525 12.0476C23.3175 13.4126 24 15.0635 24 17.0001V19.0301C24 19.6368 24.1983 20.1501 24.595 20.5701C24.9917 20.9901 25.4933 21.2001 26.1 21.2001C26.7067 21.2001 27.2083 20.9901 27.605 20.5701C28.0017 20.1501 28.2 19.6368 28.2 19.0301V17.0001C28.2 13.8735 27.115 11.2251 24.945 9.05512C22.775 6.88512 20.1267 5.80012 17 5.80012C13.8733 5.80012 11.225 6.88512 9.055 9.05512C6.885 11.2251 5.8 13.8735 5.8 17.0001C5.8 20.1268 6.885 22.7751 9.055 24.9451C11.225 27.1151 13.8733 28.2001 17 28.2001H22.6C22.9967 28.2001 23.3292 28.3343 23.5975 28.6026C23.8658 28.871 24 29.2035 24 29.6001C24 29.9968 23.8658 30.3293 23.5975 30.5976C23.3292 30.866 22.9967 31.0001 22.6 31.0001H17ZM17 21.2001C18.1667 21.2001 19.1583 20.7918 19.975 19.9751C20.7917 19.1585 21.2 18.1668 21.2 17.0001C21.2 15.8335 20.7917 14.8418 19.975 14.0251C19.1583 13.2085 18.1667 12.8001 17 12.8001C15.8333 12.8001 14.8417 13.2085 14.025 14.0251C13.2083 14.8418 12.8 15.8335 12.8 17.0001C12.8 18.1668 13.2083 19.1585 14.025 19.9751C14.8417 20.7918 15.8333 21.2001 17 21.2001Z" fill="#DE344B"/>
</g>
</svg>
