<svg width="26" height="26" viewBox="0 0 26 26" fill="none" xmlns="http://www.w3.org/2000/svg">
<path d="M24.1304 25.6001C21.2137 25.6001 18.3321 24.9643 15.4854 23.6926C12.6387 22.421 10.0487 20.6185 7.71539 18.2851C5.38206 15.9518 3.57956 13.3618 2.30789 10.5151C1.03622 7.66848 0.400391 4.78681 0.400391 1.87015C0.400391 1.45015 0.540391 1.10015 0.820391 0.820147C1.10039 0.540146 1.45039 0.400146 1.87039 0.400146H7.54039C7.86706 0.400146 8.15872 0.51098 8.41539 0.732646C8.67206 0.954313 8.82372 1.21681 8.87039 1.52015L9.78039 6.42015C9.82706 6.79348 9.81539 7.10848 9.74539 7.36515C9.67539 7.62181 9.54706 7.84348 9.36039 8.03015L5.96539 11.4601C6.43206 12.3235 6.98622 13.1576 7.62789 13.9626C8.26956 14.7676 8.97539 15.5435 9.74539 16.2901C10.4687 17.0135 11.2271 17.6843 12.0204 18.3026C12.8137 18.921 13.6537 19.4868 14.5404 20.0001L17.8304 16.7101C18.0404 16.5001 18.3146 16.3426 18.6529 16.2376C18.9912 16.1326 19.3237 16.1035 19.6504 16.1501L24.4804 17.1301C24.8071 17.2235 25.0754 17.3926 25.2854 17.6376C25.4954 17.8826 25.6004 18.1568 25.6004 18.4601V24.1301C25.6004 24.5501 25.4604 24.9001 25.1804 25.1801C24.9004 25.4601 24.5504 25.6001 24.1304 25.6001Z" fill="#DE344B"/>
</svg>
