<svg width="34" height="34" viewBox="0 0 34 34" fill="none" xmlns="http://www.w3.org/2000/svg">
<mask id="mask0_3_127" style="mask-type:alpha" maskUnits="userSpaceOnUse" x="0" y="0" width="34" height="34">
<rect x="0.200073" y="0.200195" width="33.6" height="33.6" fill="#D9D9D9"/>
</mask>
<g mask="url(#mask0_3_127)">
<path d="M5.8 28.1998C5.03 28.1998 4.37083 27.9256 3.8225 27.3773C3.27417 26.829 3 26.1698 3 25.3998V22.5998C3 22.2031 3.13417 21.8706 3.4025 21.6023C3.67083 21.334 4.00333 21.1998 4.4 21.1998C4.79667 21.1998 5.12917 21.334 5.3975 21.6023C5.66583 21.8706 5.8 22.2031 5.8 22.5998V25.3998H28.2V8.5998H5.8V11.3998C5.8 11.7965 5.66583 12.129 5.3975 12.3973C5.12917 12.6656 4.79667 12.7998 4.4 12.7998C4.00333 12.7998 3.67083 12.6656 3.4025 12.3973C3.13417 12.129 3 11.7965 3 11.3998V8.5998C3 7.8298 3.27417 7.17064 3.8225 6.6223C4.37083 6.07397 5.03 5.7998 5.8 5.7998H28.2C28.97 5.7998 29.6292 6.07397 30.1775 6.6223C30.7258 7.17064 31 7.8298 31 8.5998V25.3998C31 26.1698 30.7258 26.829 30.1775 27.3773C29.6292 27.9256 28.97 28.1998 28.2 28.1998H5.8ZM17.245 18.3998H4.4C4.00333 18.3998 3.67083 18.2656 3.4025 17.9973C3.13417 17.729 3 17.3965 3 16.9998C3 16.6031 3.13417 16.2706 3.4025 16.0023C3.67083 15.734 4.00333 15.5998 4.4 15.5998H17.245L15.32 13.7098C15.04 13.4531 14.9058 13.1323 14.9175 12.7473C14.9292 12.3623 15.0633 12.0298 15.32 11.7498C15.6 11.4698 15.9325 11.324 16.3175 11.3123C16.7025 11.3006 17.035 11.4348 17.315 11.7148L21.62 16.0198C21.9 16.2998 22.04 16.6265 22.04 16.9998C22.04 17.3731 21.9 17.6998 21.62 17.9798L17.315 22.2848C17.035 22.5648 16.7025 22.7048 16.3175 22.7048C15.9325 22.7048 15.6 22.5648 15.32 22.2848C15.0633 22.0048 14.9292 21.6723 14.9175 21.2873C14.9058 20.9023 15.04 20.5698 15.32 20.2898L17.245 18.3998Z" fill="#DE344B"/>
</g>
</svg>
