<svg width="24" height="24" viewBox="0 0 24 24" fill="none" xmlns="http://www.w3.org/2000/svg">
<path d="M12.0264 24.0071H11.9736C5.37143 24.0071 0 18.6341 0 12.0299V11.9771C0 5.37301 5.37143 0 11.9736 0H12.0264C18.6286 0 24 5.37301 24 11.9771V12.0299C24 18.6341 18.6286 24.0071 12.0264 24.0071ZM11.9736 0.812614C5.81904 0.812614 0.812375 5.82076 0.812375 11.9771V12.0299C0.812375 18.1863 5.81904 23.1944 11.9736 23.1944H12.0264C18.181 23.1944 23.1876 18.1863 23.1876 12.0299V11.9771C23.1876 5.82076 18.181 0.812614 12.0264 0.812614H11.9736Z" fill="white"/>
<path d="M15.5879 5.125H8.413C6.4308 5.125 4.81824 6.73804 4.81824 8.72082V15.2867C4.81824 17.2695 6.4308 18.8826 8.413 18.8826H15.5879C17.5701 18.8826 19.1827 17.2695 19.1827 15.2867V8.72082C19.1827 6.73804 17.5701 5.125 15.5879 5.125ZM6.08636 8.72082C6.08636 7.4377 7.13026 6.39349 8.413 6.39349H15.5879C16.8706 6.39349 17.9145 7.4377 17.9145 8.72082V15.2867C17.9145 16.5699 16.8706 17.6141 15.5879 17.6141H8.413C7.13026 17.6141 6.08636 16.5699 6.08636 15.2867V8.72082Z" fill="white"/>
<path d="M12.0005 15.3481C13.8438 15.3481 15.3442 13.8481 15.3442 12.0034C15.3442 10.1588 13.8446 8.65869 12.0005 8.65869C10.1564 8.65869 8.65674 10.1588 8.65674 12.0034C8.65674 13.8481 10.1564 15.3481 12.0005 15.3481ZM12.0005 9.92799C13.1451 9.92799 14.0761 10.8593 14.0761 12.0042C14.0761 13.1492 13.1451 14.0805 12.0005 14.0805C10.8558 14.0805 9.92486 13.1492 9.92486 12.0042C9.92486 10.8593 10.8558 9.92799 12.0005 9.92799Z" fill="white"/>
<path d="M15.6537 9.19886C16.1501 9.19886 16.5547 8.79499 16.5547 8.29767C16.5547 7.80035 16.1509 7.39648 15.6537 7.39648C15.1566 7.39648 14.7528 7.80035 14.7528 8.29767C14.7528 8.79499 15.1566 9.19886 15.6537 9.19886Z" fill="white"/>
</svg>
