<svg width="36" height="36" viewBox="0 0 36 36" fill="none" xmlns="http://www.w3.org/2000/svg">
<mask id="mask0_14_117" style="mask-type:alpha" maskUnits="userSpaceOnUse" x="0" y="0" width="36" height="36">
<rect width="36" height="36" fill="#D9D9D9"/>
</mask>
<g mask="url(#mask0_14_117)">
<path d="M18 24L24 18L18 12L15.9 14.1L18.3 16.5H12V19.5H18.3L15.9 21.9L18 24ZM18 33C15.925 33 13.975 32.6062 12.15 31.8187C10.325 31.0312 8.7375 29.9625 7.3875 28.6125C6.0375 27.2625 4.96875 25.675 4.18125 23.85C3.39375 22.025 3 20.075 3 18C3 15.925 3.39375 13.975 4.18125 12.15C4.96875 10.325 6.0375 8.7375 7.3875 7.3875C8.7375 6.0375 10.325 4.96875 12.15 4.18125C13.975 3.39375 15.925 3 18 3C20.075 3 22.025 3.39375 23.85 4.18125C25.675 4.96875 27.2625 6.0375 28.6125 7.3875C29.9625 8.7375 31.0312 10.325 31.8187 12.15C32.6062 13.975 33 15.925 33 18C33 20.075 32.6062 22.025 31.8187 23.85C31.0312 25.675 29.9625 27.2625 28.6125 28.6125C27.2625 29.9625 25.675 31.0312 23.85 31.8187C22.025 32.6062 20.075 33 18 33Z" fill="#DE344B"/>
</g>
</svg>
