<svg width="50" height="51" viewBox="0 0 50 51" fill="none" xmlns="http://www.w3.org/2000/svg">
<path d="M35.5463 13.2216C35.5463 13.8235 35.5116 14.4418 35.4431 15.0436C33.2595 13.1184 30.4914 12.0692 27.5351 12.0692C25.9584 12.066 24.3966 12.3742 22.9392 12.976C21.4819 13.5778 20.1577 14.4614 19.0426 15.5761C15.0882 19.5132 13.2489 24.6878 12.4753 29.5701C8.62412 25.5298 4.6012 19.7534 4.6012 13.2208C4.6012 8.47719 8.45241 4.62598 13.1969 4.62598C15.9988 4.62598 18.5093 5.98401 20.0737 8.06441C20.8752 6.99769 21.9137 6.13181 23.1071 5.5351C24.3005 4.93838 25.6163 4.62716 26.9506 4.62598C31.6951 4.62598 35.5463 8.47719 35.5463 13.2216Z" fill="#E45535"/>
<path d="M43.352 39.9039C38.4177 44.8209 30.9052 45.904 25.2485 45.904C21.0018 45.904 17.7871 45.2849 17.4775 45.2337L16.3432 45.01L16.1368 43.8757C15.9825 43.1706 12.8528 26.615 21.4666 18.0193C24.8192 14.6667 30.2687 14.6667 33.6212 18.0193C34.4192 18.8153 35.0518 19.7613 35.4825 20.8028C35.9132 21.8444 36.1336 22.9609 36.1309 24.088C36.1309 24.5007 36.1136 24.9135 36.0451 25.3081C38.6414 24.9474 41.3575 25.7548 43.3512 27.732C46.7038 31.0845 46.7038 36.5513 43.352 39.9039Z" fill="#CA0061"/>
</svg>
