<svg width="34" height="34" viewBox="0 0 34 34" fill="none" xmlns="http://www.w3.org/2000/svg">
<mask id="mask0_47_8658" style="mask-type:alpha" maskUnits="userSpaceOnUse" x="0" y="0" width="34" height="34">
<rect x="0.200195" y="0.200195" width="33.6" height="33.6" fill="#D9D9D9"/>
</mask>
<g mask="url(#mask0_47_8658)">
<path d="M10.0006 17.0001C10.0006 17.3968 9.86642 17.7293 9.59809 17.9976C9.32975 18.2659 8.99725 18.4001 8.60059 18.4001H3.00059C2.60392 18.4001 2.27142 18.2659 2.00309 17.9976C1.73475 17.7293 1.60059 17.3968 1.60059 17.0001C1.60059 16.6034 1.73475 16.2709 2.00309 16.0026C2.27142 15.7343 2.60392 15.6001 3.00059 15.6001H8.60059C8.99725 15.6001 9.32975 15.7343 9.59809 16.0026C9.86642 16.2709 10.0006 16.6034 10.0006 17.0001ZM12.0306 12.0301C11.7739 12.2868 11.4473 12.4151 11.0506 12.4151C10.6539 12.4151 10.3273 12.2868 10.0706 12.0301L9.09059 11.0501C8.83392 10.7934 8.70559 10.4668 8.70559 10.0701C8.70559 9.67343 8.83392 9.34676 9.09059 9.0901C9.34725 8.83343 9.67392 8.7051 10.0706 8.7051C10.4673 8.7051 10.7939 8.83343 11.0506 9.0901L12.0306 10.0701C12.2873 10.3268 12.4156 10.6534 12.4156 11.0501C12.4156 11.4468 12.2873 11.7734 12.0306 12.0301ZM15.6006 8.6001V3.0001C15.6006 2.60343 15.7348 2.27093 16.0031 2.0026C16.2714 1.73426 16.6039 1.6001 17.0006 1.6001C17.3973 1.6001 17.7298 1.73426 17.9981 2.0026C18.2664 2.27093 18.4006 2.60343 18.4006 3.0001V8.6001C18.4006 8.99676 18.2664 9.32926 17.9981 9.5976C17.7298 9.86593 17.3973 10.0001 17.0006 10.0001C16.6039 10.0001 16.2714 9.86593 16.0031 9.5976C15.7348 9.32926 15.6006 8.99676 15.6006 8.6001ZM21.9706 12.0301C21.7139 11.7734 21.5856 11.4468 21.5856 11.0501C21.5856 10.6534 21.7139 10.3268 21.9706 10.0701L22.9506 9.0901C23.2073 8.83343 23.5339 8.7051 23.9306 8.7051C24.3273 8.7051 24.6539 8.83343 24.9106 9.0901C25.1673 9.34676 25.2956 9.67343 25.2956 10.0701C25.2956 10.4668 25.1673 10.7934 24.9106 11.0501L23.9306 12.0301C23.6739 12.2868 23.3473 12.4151 22.9506 12.4151C22.5539 12.4151 22.2273 12.2868 21.9706 12.0301ZM24.0006 17.0001C24.0006 16.6034 24.1348 16.2709 24.4031 16.0026C24.6714 15.7343 25.0039 15.6001 25.4006 15.6001H31.0006C31.3973 15.6001 31.7298 15.7343 31.9981 16.0026C32.2664 16.2709 32.4006 16.6034 32.4006 17.0001C32.4006 17.3968 32.2664 17.7293 31.9981 17.9976C31.7298 18.2659 31.3973 18.4001 31.0006 18.4001H25.4006C25.0039 18.4001 24.6714 18.2659 24.4031 17.9976C24.1348 17.7293 24.0006 17.3968 24.0006 17.0001ZM17.0006 21.2001C15.8339 21.2001 14.8423 20.7918 14.0256 19.9751C13.2089 19.1584 12.8006 18.1668 12.8006 17.0001C12.8006 15.8334 13.2089 14.8418 14.0256 14.0251C14.8423 13.2084 15.8339 12.8001 17.0006 12.8001C18.1673 12.8001 19.1589 13.2084 19.9756 14.0251C20.7923 14.8418 21.2006 15.8334 21.2006 17.0001C21.2006 18.1668 20.7923 19.1584 19.9756 19.9751C19.1589 20.7918 18.1673 21.2001 17.0006 21.2001ZM21.9706 21.9701C22.2273 21.7134 22.5539 21.5851 22.9506 21.5851C23.3473 21.5851 23.6739 21.7134 23.9306 21.9701L24.9106 22.9501C25.1673 23.2068 25.2956 23.5334 25.2956 23.9301C25.2956 24.3268 25.1673 24.6534 24.9106 24.9101C24.6539 25.1668 24.3273 25.2951 23.9306 25.2951C23.5339 25.2951 23.2073 25.1668 22.9506 24.9101L21.9706 23.9301C21.7139 23.6734 21.5856 23.3468 21.5856 22.9501C21.5856 22.5534 21.7139 22.2268 21.9706 21.9701ZM12.0306 21.9701C12.2873 22.2268 12.4156 22.5534 12.4156 22.9501C12.4156 23.3468 12.2873 23.6734 12.0306 23.9301L11.0506 24.9101C10.7939 25.1668 10.4673 25.2951 10.0706 25.2951C9.67392 25.2951 9.34725 25.1668 9.09059 24.9101C8.83392 24.6534 8.70559 24.3268 8.70559 23.9301C8.70559 23.5334 8.83392 23.2068 9.09059 22.9501L10.0706 21.9701C10.3273 21.7134 10.6539 21.5851 11.0506 21.5851C11.4473 21.5851 11.7739 21.7134 12.0306 21.9701ZM17.0006 24.0001C17.3973 24.0001 17.7298 24.1343 17.9981 24.4026C18.2664 24.6709 18.4006 25.0034 18.4006 25.4001V31.0001C18.4006 31.3968 18.2664 31.7293 17.9981 31.9976C17.7298 32.2659 17.3973 32.4001 17.0006 32.4001C16.6039 32.4001 16.2714 32.2659 16.0031 31.9976C15.7348 31.7293 15.6006 31.3968 15.6006 31.0001V25.4001C15.6006 25.0034 15.7348 24.6709 16.0031 24.4026C16.2714 24.1343 16.6039 24.0001 17.0006 24.0001Z" fill="#DE344B"/>
</g>
</svg>
