<svg width="34" height="34" viewBox="0 0 34 34" fill="none" xmlns="http://www.w3.org/2000/svg">
<mask id="mask0_47_8676" style="mask-type:alpha" maskUnits="userSpaceOnUse" x="0" y="0" width="34" height="34">
<rect x="0.200195" y="0.200195" width="33.6" height="33.6" fill="#D9D9D9"/>
</mask>
<g mask="url(#mask0_47_8676)">
<path d="M21.9 15.6002C22.4833 15.6002 22.9792 15.3961 23.3875 14.9877C23.7958 14.5794 24 14.0836 24 13.5002C24 12.9169 23.7958 12.4211 23.3875 12.0127C22.9792 11.6044 22.4833 11.4002 21.9 11.4002C21.3167 11.4002 20.8208 11.6044 20.4125 12.0127C20.0042 12.4211 19.8 12.9169 19.8 13.5002C19.8 14.0836 20.0042 14.5794 20.4125 14.9877C20.8208 15.3961 21.3167 15.6002 21.9 15.6002ZM12.1 15.6002C12.6833 15.6002 13.1792 15.3961 13.5875 14.9877C13.9958 14.5794 14.2 14.0836 14.2 13.5002C14.2 12.9169 13.9958 12.4211 13.5875 12.0127C13.1792 11.6044 12.6833 11.4002 12.1 11.4002C11.5167 11.4002 11.0208 11.6044 10.6125 12.0127C10.2042 12.4211 10 12.9169 10 13.5002C10 14.0836 10.2042 14.5794 10.6125 14.9877C11.0208 15.3961 11.5167 15.6002 12.1 15.6002ZM17 31.0002C15.0633 31.0002 13.2433 30.6327 11.54 29.8977C9.83667 29.1627 8.355 28.1652 7.095 26.9052C5.835 25.6452 4.8375 24.1636 4.1025 22.4602C3.3675 20.7569 3 18.9369 3 17.0002C3 15.0636 3.3675 13.2436 4.1025 11.5402C4.8375 9.83691 5.835 8.35524 7.095 7.09524C8.355 5.83524 9.83667 4.83774 11.54 4.10274C13.2433 3.36774 15.0633 3.00024 17 3.00024C18.9367 3.00024 20.7567 3.36774 22.46 4.10274C24.1633 4.83774 25.645 5.83524 26.905 7.09524C28.165 8.35524 29.1625 9.83691 29.8975 11.5402C30.6325 13.2436 31 15.0636 31 17.0002C31 18.9369 30.6325 20.7569 29.8975 22.4602C29.1625 24.1636 28.165 25.6452 26.905 26.9052C25.645 28.1652 24.1633 29.1627 22.46 29.8977C20.7567 30.6327 18.9367 31.0002 17 31.0002ZM17 24.7002C18.3533 24.7002 19.6017 24.3736 20.745 23.7202C21.8883 23.0669 22.81 22.1802 23.51 21.0602C23.65 20.7802 23.6383 20.5002 23.475 20.2202C23.3117 19.9402 23.0667 19.8002 22.74 19.8002H11.26C10.9333 19.8002 10.6883 19.9402 10.525 20.2202C10.3617 20.5002 10.35 20.7802 10.49 21.0602C11.19 22.1802 12.1175 23.0669 13.2725 23.7202C14.4275 24.3736 15.67 24.7002 17 24.7002Z" fill="#DE344B"/>
</g>
</svg>
