<svg width="34" height="34" viewBox="0 0 34 34" fill="none" xmlns="http://www.w3.org/2000/svg">
<mask id="mask0_108_5635" style="mask-type:alpha" maskUnits="userSpaceOnUse" x="0" y="0" width="34" height="34">
<rect x="0.200195" y="0.200134" width="33.6" height="33.6" fill="#D9D9D9"/>
</mask>
<g mask="url(#mask0_108_5635)">
<path d="M17 31.0001C15.0633 31.0001 13.2433 30.6326 11.54 29.8976C9.83667 29.1626 8.355 28.1651 7.095 26.9051C5.835 25.6451 4.8375 24.1635 4.1025 22.4601C3.3675 20.7568 3 18.9368 3 17.0001C3 15.0635 3.3675 13.2435 4.1025 11.5401C4.8375 9.83679 5.835 8.35512 7.095 7.09512C8.355 5.83512 9.83667 4.83762 11.54 4.10262C13.2433 3.36762 15.0633 3.00012 17 3.00012C18.9367 3.00012 20.7567 3.36762 22.46 4.10262C24.1633 4.83762 25.645 5.83512 26.905 7.09512C28.165 8.35512 29.1625 9.83679 29.8975 11.5401C30.6325 13.2435 31 15.0635 31 17.0001C31 18.9368 30.6325 20.7568 29.8975 22.4601C29.1625 24.1635 28.165 25.6451 26.905 26.9051C25.645 28.1651 24.1633 29.1626 22.46 29.8976C20.7567 30.6326 18.9367 31.0001 17 31.0001ZM16.965 26.8001C17.2917 26.8001 17.5775 26.6776 17.8225 26.4326C18.0675 26.1876 18.19 25.9018 18.19 25.5751V25.0501C19.3567 24.8401 20.36 24.3851 21.2 23.6851C22.04 22.9851 22.46 21.9468 22.46 20.5701C22.46 19.5901 22.18 18.6918 21.62 17.8751C21.06 17.0585 19.94 16.3468 18.26 15.7401C16.86 15.2735 15.8917 14.8651 15.355 14.5151C14.8183 14.1651 14.55 13.6868 14.55 13.0801C14.55 12.4735 14.7658 11.9951 15.1975 11.6451C15.6292 11.2951 16.2533 11.1201 17.07 11.1201C17.5367 11.1201 17.945 11.2018 18.295 11.3651C18.645 11.5285 18.9367 11.7501 19.17 12.0301C19.4033 12.3101 19.6658 12.5026 19.9575 12.6076C20.2492 12.7126 20.5233 12.7068 20.78 12.5901C21.13 12.4501 21.3692 12.211 21.4975 11.8726C21.6258 11.5343 21.5967 11.2251 21.41 10.9451C21.0367 10.4085 20.5758 9.95345 20.0275 9.58012C19.4792 9.20679 18.89 8.99679 18.26 8.95012V8.42512C18.26 8.09845 18.1375 7.81262 17.8925 7.56762C17.6475 7.32262 17.3617 7.20012 17.035 7.20012C16.7083 7.20012 16.4225 7.32262 16.1775 7.56762C15.9325 7.81262 15.81 8.09845 15.81 8.42512V8.95012C14.6433 9.20679 13.7333 9.72012 13.08 10.4901C12.4267 11.2601 12.1 12.1235 12.1 13.0801C12.1 14.1768 12.4208 15.0635 13.0625 15.7401C13.7042 16.4168 14.7133 17.0001 16.09 17.4901C17.56 18.0268 18.5808 18.5051 19.1525 18.9251C19.7242 19.3451 20.01 19.8935 20.01 20.5701C20.01 21.3401 19.7358 21.906 19.1875 22.2676C18.6392 22.6293 17.98 22.8101 17.21 22.8101C16.6033 22.8101 16.055 22.6643 15.565 22.3726C15.075 22.081 14.6667 21.6435 14.34 21.0601C14.1533 20.7335 13.9083 20.5118 13.605 20.3951C13.3017 20.2785 12.9983 20.2785 12.695 20.3951C12.3683 20.5118 12.1292 20.7335 11.9775 21.0601C11.8258 21.3868 11.82 21.7018 11.96 22.0051C12.3333 22.7985 12.835 23.446 13.465 23.9476C14.095 24.4493 14.8533 24.7935 15.74 24.9801V25.5751C15.74 25.9018 15.8625 26.1876 16.1075 26.4326C16.3525 26.6776 16.6383 26.8001 16.965 26.8001Z" fill="#DE344B"/>
</g>
</svg>
