<svg width="16" height="16" viewBox="0 0 16 16" fill="none" xmlns="http://www.w3.org/2000/svg">
<rect width="16" height="16" fill="#DE344B"/>
<path d="M6.45202 5.69507V7.45544H5.84448V5.69507H4.88978V5.20544H7.40835V5.69507H6.45202ZM10.3211 6.33208C10.3211 6.52531 10.2856 6.69616 10.2147 6.84463C10.1437 6.99201 10.0422 7.11538 9.91008 7.21472C9.77799 7.31407 9.61751 7.3894 9.42864 7.44071C9.24087 7.49092 9.02962 7.51603 8.79491 7.51603C8.56019 7.51603 8.34785 7.49092 8.15789 7.44071C7.96903 7.3894 7.808 7.31407 7.67481 7.21472C7.54163 7.11538 7.43901 6.99201 7.36695 6.84463C7.2949 6.69616 7.25887 6.52531 7.25887 6.33208C7.25887 6.13885 7.2949 5.96854 7.36695 5.82116C7.43901 5.67269 7.54163 5.54878 7.67481 5.44943C7.808 5.35009 7.96903 5.27531 8.15789 5.22509C8.34785 5.17378 8.56019 5.14812 8.79491 5.14812C9.02962 5.14812 9.24087 5.17378 9.42864 5.22509C9.61751 5.27531 9.77799 5.35009 9.91008 5.44943C10.0422 5.54878 10.1437 5.67269 10.2147 5.82116C10.2856 5.96854 10.3211 6.13885 10.3211 6.33208ZM9.70703 6.33208C9.70703 6.24802 9.69338 6.1645 9.66609 6.08153C9.63989 5.99747 9.5924 5.92214 9.52362 5.85555C9.45593 5.78895 9.36314 5.73491 9.24523 5.69343C9.12733 5.65194 8.97722 5.6312 8.79491 5.6312C8.67263 5.6312 8.5651 5.64103 8.47231 5.66068C8.37951 5.67924 8.29927 5.70544 8.23158 5.73928C8.1639 5.77312 8.10713 5.81297 8.06128 5.85882C8.01543 5.90358 7.97885 5.95216 7.95156 6.00457C7.92427 6.05588 7.90462 6.10992 7.89261 6.16668C7.88169 6.22236 7.87623 6.27749 7.87623 6.33208C7.87623 6.38776 7.88169 6.44398 7.89261 6.50075C7.90462 6.55752 7.92427 6.6121 7.95156 6.6645C7.97885 6.71581 8.01543 6.76385 8.06128 6.80861C8.10713 6.85337 8.1639 6.89267 8.23158 6.92651C8.29927 6.95926 8.37951 6.98546 8.47231 7.00512C8.5651 7.02367 8.67263 7.03295 8.79491 7.03295C8.97722 7.03295 9.12733 7.01221 9.24523 6.97073C9.36314 6.92924 9.45593 6.8752 9.52362 6.80861C9.5924 6.74201 9.63989 6.66723 9.66609 6.58426C9.69338 6.5002 9.70703 6.41614 9.70703 6.33208ZM12.967 5.97345C12.967 6.0859 12.9506 6.18961 12.9179 6.28459C12.8851 6.37848 12.8322 6.45981 12.759 6.52859C12.687 6.59627 12.5931 6.64922 12.4774 6.68743C12.3617 6.72564 12.2208 6.74474 12.0549 6.74474H11.0462V7.45544H10.4386V5.20544H12.0549C12.2208 5.20544 12.3617 5.22454 12.4774 5.26275C12.5931 5.29987 12.687 5.35282 12.759 5.42159C12.8322 5.48928 12.8851 5.57007 12.9179 5.66395C12.9506 5.75784 12.967 5.86101 12.967 5.97345ZM12.3529 5.98328C12.3529 5.93088 12.3453 5.88612 12.33 5.849C12.3158 5.81079 12.2918 5.77967 12.258 5.75566C12.2241 5.73164 12.1799 5.71417 12.1253 5.70325C12.0707 5.69125 12.0036 5.68524 11.9239 5.68524H11.0462V6.26494H11.9239C12.0036 6.26494 12.0707 6.26057 12.1253 6.25184C12.1799 6.24201 12.2241 6.22618 12.258 6.20435C12.2918 6.18142 12.3158 6.15195 12.33 6.11592C12.3453 6.07989 12.3529 6.03568 12.3529 5.98328Z" fill="white"/>
<path d="M3.32261 7.72393C3.54313 7.72393 3.74783 7.74303 3.9367 7.78124C4.12665 7.81836 4.30078 7.8664 4.45908 7.92535V8.47557C4.39685 8.44063 4.32643 8.40679 4.24783 8.37404C4.17032 8.34129 4.08571 8.31236 3.99401 8.28725C3.90231 8.26214 3.80405 8.24194 3.69925 8.22666C3.59444 8.21137 3.48418 8.20373 3.36846 8.20373C3.22436 8.20373 3.09881 8.2141 2.99182 8.23485C2.88484 8.25559 2.79313 8.28343 2.71671 8.31836C2.64029 8.3533 2.57752 8.39424 2.52839 8.44118C2.47927 8.48703 2.44051 8.53616 2.41213 8.58856C2.38374 8.64096 2.36409 8.69445 2.35317 8.74904C2.34226 8.80363 2.3368 8.85657 2.3368 8.90788C2.3368 8.95264 2.34117 9.00122 2.3499 9.05363C2.35972 9.10603 2.37719 9.15843 2.4023 9.21083C2.4285 9.26323 2.46453 9.31345 2.51038 9.36149C2.55623 9.40952 2.61573 9.4521 2.68887 9.48922C2.76311 9.52634 2.85208 9.55636 2.9558 9.57928C3.05951 9.60112 3.18287 9.61203 3.32589 9.61203C3.39794 9.61203 3.46071 9.60985 3.5142 9.60548C3.5677 9.60112 3.61628 9.59511 3.65995 9.58747C3.70471 9.57983 3.74619 9.57055 3.7844 9.55963C3.8237 9.54872 3.8641 9.53725 3.90558 9.52524V9.25341H3.22436V8.7605H4.51312V9.91007C4.43233 9.93736 4.34172 9.96247 4.24128 9.9854C4.14194 10.0072 4.03877 10.0258 3.93178 10.0411C3.82589 10.0575 3.71945 10.07 3.61246 10.0787C3.50547 10.0875 3.40449 10.0918 3.30951 10.0918C3.16213 10.0918 3.02075 10.082 2.88538 10.0624C2.75001 10.0427 2.62337 10.0127 2.50547 9.9723C2.38865 9.93081 2.28167 9.87841 2.18451 9.81509C2.08844 9.75177 2.00601 9.67645 1.93723 9.58911C1.86955 9.50177 1.8166 9.40188 1.77839 9.28944C1.74127 9.1759 1.72271 9.04871 1.72271 8.90788C1.72271 8.76815 1.74236 8.64151 1.78167 8.52797C1.82097 8.41443 1.87555 8.314 1.94542 8.22666C2.01638 8.13932 2.10099 8.06399 2.19924 8.00068C2.29859 7.93736 2.40721 7.8855 2.52512 7.84511C2.64411 7.80362 2.77075 7.77305 2.90503 7.7534C3.0404 7.73375 3.1796 7.72393 3.32261 7.72393ZM4.73216 10.0312V7.78124H5.33969V9.53834H6.98216V10.0312H4.73216ZM10.0128 8.90788C10.0128 9.10112 9.97735 9.27197 9.90639 9.42044C9.83543 9.56782 9.7339 9.69118 9.6018 9.79053C9.46971 9.88987 9.30922 9.9652 9.12036 10.0165C8.93259 10.0667 8.72134 10.0918 8.48662 10.0918C8.25191 10.0918 8.03957 10.0667 7.84961 10.0165C7.66075 9.9652 7.49972 9.88987 7.36653 9.79053C7.23334 9.69118 7.13072 9.56782 7.05867 9.42044C6.98662 9.27197 6.95059 9.10112 6.95059 8.90788C6.95059 8.71465 6.98662 8.54435 7.05867 8.39696C7.13072 8.24849 7.23334 8.12458 7.36653 8.02524C7.49972 7.92589 7.66075 7.85111 7.84961 7.80089C8.03957 7.74958 8.25191 7.72393 8.48662 7.72393C8.72134 7.72393 8.93259 7.74958 9.12036 7.80089C9.30922 7.85111 9.46971 7.92589 9.6018 8.02524C9.7339 8.12458 9.83543 8.24849 9.90639 8.39696C9.97735 8.54435 10.0128 8.71465 10.0128 8.90788ZM9.39874 8.90788C9.39874 8.82382 9.3851 8.74031 9.35781 8.65734C9.3316 8.57328 9.28412 8.49795 9.21534 8.43135C9.14765 8.36476 9.05486 8.31072 8.93695 8.26924C8.81905 8.22775 8.66894 8.20701 8.48662 8.20701C8.36435 8.20701 8.25682 8.21683 8.16402 8.23648C8.07123 8.25504 7.99099 8.28124 7.9233 8.31509C7.85562 8.34893 7.79885 8.38878 7.753 8.43463C7.70714 8.47939 7.67057 8.52797 7.64328 8.58037C7.61599 8.63168 7.59634 8.68572 7.58433 8.74249C7.57341 8.79817 7.56795 8.8533 7.56795 8.90788C7.56795 8.96356 7.57341 9.01978 7.58433 9.07655C7.59634 9.13332 7.61599 9.18791 7.64328 9.24031C7.67057 9.29162 7.70714 9.33965 7.753 9.38441C7.79885 9.42917 7.85562 9.46848 7.9233 9.50232C7.99099 9.53507 8.07123 9.56127 8.16402 9.58092C8.25682 9.59948 8.36435 9.60876 8.48662 9.60876C8.66894 9.60876 8.81905 9.58802 8.93695 9.54653C9.05486 9.50505 9.14765 9.45101 9.21534 9.38441C9.28412 9.31782 9.3316 9.24304 9.35781 9.16007C9.3851 9.07601 9.39874 8.99195 9.39874 8.90788ZM12.3001 7.78124L12.8749 9.34347L13.4972 7.78124H14.1276L13.2237 10.0312H12.549L11.9611 8.51814L11.3749 10.0312H10.7002L9.79464 7.78124H10.4267L11.0359 9.31072L11.6238 7.78124H12.3001Z" fill="white"/>
<path d="M11.8568 7.51019C11.8167 7.51019 11.7797 7.49898 11.7458 7.47657C11.7125 7.45349 11.6857 7.42225 11.6653 7.38287C11.6456 7.34281 11.6358 7.29731 11.6358 7.24639C11.6358 7.19546 11.646 7.14997 11.6663 7.1099C11.6867 7.06984 11.7142 7.03827 11.7488 7.01518C11.7842 6.99209 11.8235 6.98055 11.867 6.98055C11.9145 6.98055 11.9505 6.99277 11.975 7.01722C12.0001 7.04098 12.0171 7.0729 12.0259 7.11296C12.0354 7.15302 12.0401 7.1975 12.0401 7.24639C12.0401 7.27219 12.0374 7.30037 12.032 7.33092C12.0266 7.3608 12.0171 7.38966 12.0035 7.4175C11.9906 7.44466 11.9722 7.46707 11.9485 7.48472C11.9247 7.5017 11.8942 7.51019 11.8568 7.51019ZM11.8772 7.43278C11.9118 7.43278 11.9403 7.42429 11.9627 7.40731C11.9858 7.39034 12.0028 7.36793 12.0137 7.34009C12.0245 7.31157 12.03 7.28034 12.03 7.24639C12.03 7.20904 12.0242 7.17645 12.0126 7.14861C12.0018 7.12009 11.9848 7.09802 11.9617 7.0824C11.9393 7.06611 11.9111 7.05796 11.8772 7.05796C11.8263 7.05796 11.7869 7.07595 11.759 7.11194C11.7312 7.14725 11.7173 7.19206 11.7173 7.24639C11.7173 7.28237 11.7241 7.31463 11.7376 7.34315C11.7519 7.37099 11.7709 7.39305 11.7947 7.40935C11.8191 7.42497 11.8466 7.43278 11.8772 7.43278ZM12.03 6.99073H12.1114V7.5H12.0371C12.0371 7.5 12.0364 7.49389 12.0351 7.48167C12.0344 7.46944 12.0334 7.45518 12.032 7.43889C12.0306 7.42259 12.03 7.40901 12.03 7.39815V6.99073ZM12.3348 7.41954C12.2989 7.41954 12.2646 7.41105 12.232 7.39407C12.2001 7.37642 12.1739 7.35129 12.1535 7.3187C12.1339 7.28611 12.124 7.24706 12.124 7.20157C12.124 7.15608 12.1339 7.11703 12.1535 7.08444C12.1732 7.05117 12.199 7.0257 12.231 7.00805C12.2629 6.98972 12.2975 6.98055 12.3348 6.98055C12.3464 6.98055 12.3572 6.98157 12.3674 6.98361C12.3783 6.98496 12.3885 6.98734 12.398 6.99073H12.6048V7.07833C12.5756 7.07833 12.5464 7.0729 12.5172 7.06203C12.4886 7.05117 12.4642 7.03996 12.4438 7.02842L12.4398 7.02435C12.4635 7.03725 12.4829 7.05253 12.4978 7.07018C12.5134 7.08783 12.525 7.10787 12.5324 7.13027C12.5406 7.152 12.5447 7.17577 12.5447 7.20157C12.5447 7.24706 12.5348 7.28611 12.5151 7.3187C12.4961 7.35129 12.4706 7.37642 12.4387 7.39407C12.4068 7.41105 12.3722 7.41954 12.3348 7.41954ZM12.4846 7.70371V7.6813C12.4846 7.64531 12.4751 7.61917 12.456 7.60287C12.4377 7.58658 12.4099 7.57843 12.3725 7.57843H12.2707C12.2483 7.57843 12.2286 7.57639 12.2116 7.57232C12.1953 7.56892 12.1817 7.56349 12.1709 7.55602C12.16 7.54855 12.1518 7.53938 12.1464 7.52852C12.141 7.51765 12.1383 7.50543 12.1383 7.49185C12.1383 7.46605 12.1461 7.4467 12.1617 7.4338C12.1773 7.42022 12.1967 7.41173 12.2197 7.40833C12.2428 7.40494 12.2649 7.40494 12.286 7.40833L12.3348 7.41954C12.2982 7.42157 12.2697 7.42531 12.2493 7.43074C12.2296 7.43617 12.2197 7.44772 12.2197 7.46537C12.2197 7.47556 12.2235 7.48404 12.231 7.49083C12.2391 7.49694 12.251 7.5 12.2666 7.5H12.3725C12.4078 7.5 12.4401 7.50475 12.4693 7.51426C12.4985 7.52444 12.5219 7.54108 12.5396 7.56417C12.5572 7.58793 12.566 7.62019 12.566 7.66093V7.70371H12.4846ZM12.3348 7.34315C12.3572 7.34315 12.378 7.33771 12.397 7.32685C12.4167 7.31599 12.4326 7.30003 12.4448 7.27898C12.4571 7.25793 12.4632 7.23213 12.4632 7.20157C12.4632 7.17101 12.4571 7.14521 12.4448 7.12416C12.4333 7.10243 12.4177 7.08614 12.398 7.07527C12.3783 7.06373 12.3572 7.05796 12.3348 7.05796C12.3124 7.05796 12.2914 7.06373 12.2717 7.07527C12.252 7.08614 12.236 7.10209 12.2238 7.12314C12.2116 7.14419 12.2055 7.17034 12.2055 7.20157C12.2055 7.23213 12.2116 7.25793 12.2238 7.27898C12.236 7.30003 12.252 7.31599 12.2717 7.32685C12.2914 7.33771 12.3124 7.34315 12.3348 7.34315ZM12.9695 7.33602H13.0459C13.0404 7.36929 13.0282 7.39917 13.0092 7.42565C12.9909 7.45145 12.9664 7.47216 12.9359 7.48778C12.906 7.50272 12.8714 7.51019 12.832 7.51019C12.7844 7.51019 12.7417 7.49898 12.7036 7.47657C12.6656 7.45349 12.6354 7.42225 12.613 7.38287C12.5913 7.34281 12.5804 7.29731 12.5804 7.24639C12.5804 7.19546 12.5909 7.14997 12.612 7.1099C12.6337 7.06984 12.6632 7.03827 12.7006 7.01518C12.7379 6.99209 12.78 6.98055 12.8269 6.98055C12.8764 6.98055 12.9182 6.99175 12.9522 7.01416C12.9868 7.03589 13.0123 7.06814 13.0285 7.11092C13.0455 7.15302 13.0523 7.20497 13.0489 7.26676H12.6619C12.6653 7.30003 12.6744 7.32923 12.6894 7.35435C12.7043 7.37947 12.724 7.39917 12.7485 7.41342C12.7729 7.42701 12.8007 7.4338 12.832 7.4338C12.8666 7.4338 12.8958 7.42497 12.9196 7.40731C12.944 7.38898 12.9606 7.36521 12.9695 7.33602ZM12.8299 7.05694C12.7878 7.05694 12.7525 7.06916 12.724 7.09361C12.6955 7.11805 12.6765 7.15132 12.667 7.19342H12.9654C12.9627 7.14861 12.9481 7.11466 12.9216 7.09157C12.8958 7.06848 12.8652 7.05694 12.8299 7.05694ZM13.0623 6.99073H13.1438V7.5H13.0623V6.99073ZM13.319 6.98055C13.3461 6.98055 13.3706 6.98462 13.3923 6.99277C13.4141 7.00092 13.4324 7.0128 13.4473 7.02842C13.4623 7.04404 13.4738 7.06305 13.482 7.08546C13.4901 7.10719 13.4942 7.13197 13.4942 7.15981V7.5H13.4127V7.18018C13.4127 7.1408 13.4035 7.11126 13.3852 7.09157C13.3669 7.07188 13.3394 7.06203 13.3027 7.06203C13.2749 7.06203 13.249 7.06916 13.2253 7.08342C13.2015 7.09768 13.1818 7.11737 13.1662 7.1425C13.1513 7.16694 13.1421 7.19546 13.1387 7.22805L13.1377 7.16898C13.1411 7.14046 13.1479 7.11466 13.1581 7.09157C13.1689 7.06848 13.1822 7.04879 13.1978 7.03249C13.2141 7.01552 13.2324 7.00262 13.2528 6.99379C13.2738 6.98496 13.2959 6.98055 13.319 6.98055ZM13.9869 7.30852C13.9821 7.35062 13.9685 7.38694 13.9461 7.4175C13.9244 7.44738 13.8969 7.47046 13.8636 7.48676C13.8303 7.50238 13.7943 7.51019 13.7556 7.51019C13.7122 7.51019 13.6714 7.49966 13.6334 7.47861C13.5954 7.45756 13.5645 7.42734 13.5407 7.38796C13.5176 7.3479 13.5061 7.30071 13.5061 7.24639C13.5061 7.19206 13.5176 7.14521 13.5407 7.10583C13.5645 7.06577 13.5954 7.03487 13.6334 7.01314C13.6714 6.99141 13.7122 6.98055 13.7556 6.98055C13.7943 6.98055 13.83 6.9887 13.8626 7.00499C13.8959 7.02129 13.9234 7.04438 13.9451 7.07425C13.9675 7.10413 13.9814 7.13978 13.9869 7.1812H13.9125C13.901 7.1425 13.8809 7.11228 13.8524 7.09055C13.8239 7.06814 13.7916 7.05694 13.7556 7.05694C13.7264 7.05694 13.6989 7.06441 13.6731 7.07935C13.6473 7.09429 13.6266 7.11601 13.611 7.14453C13.5954 7.17237 13.5876 7.20632 13.5876 7.24639C13.5876 7.28577 13.5954 7.31972 13.611 7.34824C13.6266 7.37608 13.647 7.39747 13.6721 7.41241C13.6979 7.42667 13.7258 7.4338 13.7556 7.4338C13.7971 7.4338 13.8307 7.42293 13.8565 7.4012C13.883 7.37879 13.902 7.3479 13.9135 7.30852H13.9869ZM13.9531 6.99073H14.0407L14.223 7.47963L14.1517 7.5L13.9531 6.99073ZM14.4268 6.99073L14.1426 7.70371H14.054L14.1772 7.4287L14.3402 6.99073H14.4268Z" fill="white"/>
</svg>
