<svg width="32" height="32" viewBox="0 0 32 32" fill="none" xmlns="http://www.w3.org/2000/svg">
<path d="M16.2102 21.8101C16.9802 21.8101 17.6394 21.6293 18.1877 21.2676C18.7361 20.9059 19.0102 20.3401 19.0102 19.5701C19.0102 18.8934 18.7244 18.3451 18.1527 17.9251C17.5811 17.5051 16.5602 17.0268 15.0902 16.4901C13.7136 16.0001 12.7044 15.4168 12.0627 14.7401C11.4211 14.0634 11.1002 13.1768 11.1002 12.0801C11.1002 11.1234 11.4327 10.2543 12.0977 9.4726C12.7627 8.69093 13.6669 8.18343 14.8102 7.9501V7.4251C14.8102 7.09843 14.9327 6.8126 15.1777 6.5676C15.4227 6.3226 15.7086 6.2001 16.0352 6.2001C16.3619 6.2001 16.6477 6.3226 16.8927 6.5676C17.1377 6.8126 17.2602 7.09843 17.2602 7.4251V7.9501C17.9369 7.99676 18.5611 8.22426 19.1327 8.6326C19.7044 9.04093 20.1652 9.53676 20.5152 10.1201C20.6786 10.3768 20.6902 10.6509 20.5502 10.9426C20.4102 11.2343 20.1769 11.4384 19.8502 11.5551C19.5469 11.6718 19.2436 11.6834 18.9402 11.5901C18.6369 11.4968 18.3919 11.3218 18.2052 11.0651C17.9719 10.7851 17.6802 10.5576 17.3302 10.3826C16.9802 10.2076 16.5602 10.1201 16.0702 10.1201C15.2536 10.1201 14.6294 10.2951 14.1977 10.6451C13.7661 10.9951 13.5502 11.4734 13.5502 12.0801C13.5502 12.6868 13.8186 13.1651 14.3552 13.5151C14.8919 13.8651 15.8602 14.2734 17.2602 14.7401C18.9402 15.3468 20.0602 16.0584 20.6202 16.8751C21.1802 17.6918 21.4602 18.5901 21.4602 19.5701C21.4602 20.2468 21.3436 20.8418 21.1102 21.3551C20.8769 21.8684 20.5677 22.3059 20.1827 22.6676C19.7977 23.0293 19.3486 23.3209 18.8352 23.5426C18.3219 23.7643 17.7736 23.9334 17.1902 24.0501V24.5751C17.1902 24.9018 17.0677 25.1876 16.8227 25.4326C16.5777 25.6776 16.2919 25.8001 15.9652 25.8001C15.6386 25.8001 15.3527 25.6776 15.1077 25.4326C14.8627 25.1876 14.7402 24.9018 14.7402 24.5751V23.9801C13.8536 23.7934 13.0952 23.4434 12.4652 22.9301C11.8352 22.4168 11.3336 21.7634 10.9602 20.9701C10.8202 20.6434 10.8261 20.3284 10.9777 20.0251C11.1294 19.7218 11.3686 19.5118 11.6952 19.3951C11.9986 19.2784 12.3019 19.2843 12.6052 19.4126C12.9086 19.5409 13.1419 19.7451 13.3052 20.0251C13.6319 20.6318 14.0461 21.0809 14.5477 21.3726C15.0494 21.6643 15.6036 21.8101 16.2102 21.8101ZM16.0002 31.4001C13.3869 31.4001 10.9836 30.8051 8.79022 29.6151C6.59689 28.4251 4.80022 26.8384 3.40022 24.8551V27.2001C3.40022 27.5968 3.26605 27.9293 2.99772 28.1976C2.72939 28.4659 2.39689 28.6001 2.00022 28.6001C1.60355 28.6001 1.27105 28.4659 1.00272 28.1976C0.734386 27.9293 0.60022 27.5968 0.60022 27.2001V21.6001C0.60022 21.2034 0.734386 20.8709 1.00272 20.6026C1.27105 20.3343 1.60355 20.2001 2.00022 20.2001H7.60022C7.99689 20.2001 8.32939 20.3343 8.59772 20.6026C8.86605 20.8709 9.00022 21.2034 9.00022 21.6001C9.00022 21.9968 8.86605 22.3293 8.59772 22.5976C8.32939 22.8659 7.99689 23.0001 7.60022 23.0001H5.53522C6.65522 24.6801 8.13105 26.0334 9.96272 27.0601C11.7944 28.0868 13.8069 28.6001 16.0002 28.6001C19.2902 28.6001 22.1194 27.5034 24.4877 25.3101C26.8561 23.1168 28.2036 20.4218 28.5302 17.2251C28.5769 16.8518 28.7402 16.5543 29.0202 16.3326C29.3002 16.1109 29.6269 16.0001 30.0002 16.0001C30.3969 16.0001 30.7352 16.1226 31.0152 16.3676C31.2952 16.6126 31.4119 16.9101 31.3652 17.2601C31.2019 19.2434 30.6886 21.0926 29.8252 22.8076C28.9619 24.5226 27.8419 26.0159 26.4652 27.2876C25.0886 28.5593 23.5077 29.5626 21.7227 30.2976C19.9377 31.0326 18.0302 31.4001 16.0002 31.4001ZM16.0002 3.4001C12.7102 3.4001 9.88105 4.49676 7.51272 6.6901C5.14439 8.88343 3.79689 11.5784 3.47022 14.7751C3.42355 15.1484 3.26022 15.4459 2.98022 15.6676C2.70022 15.8893 2.37355 16.0001 2.00022 16.0001C1.60355 16.0001 1.26522 15.8776 0.98522 15.6326C0.70522 15.3876 0.588553 15.0901 0.63522 14.7401C0.798553 12.7568 1.31189 10.9076 2.17522 9.1926C3.03855 7.4776 4.15855 5.98426 5.53522 4.7126C6.91189 3.44093 8.49272 2.4376 10.2777 1.7026C12.0627 0.967598 13.9702 0.600098 16.0002 0.600098C18.6136 0.600098 21.0169 1.1951 23.2102 2.3851C25.4036 3.5751 27.2002 5.16176 28.6002 7.1451V4.8001C28.6002 4.40343 28.7344 4.07093 29.0027 3.8026C29.2711 3.53426 29.6036 3.4001 30.0002 3.4001C30.3969 3.4001 30.7294 3.53426 30.9977 3.8026C31.2661 4.07093 31.4002 4.40343 31.4002 4.8001V10.4001C31.4002 10.7968 31.2661 11.1293 30.9977 11.3976C30.7294 11.6659 30.3969 11.8001 30.0002 11.8001H24.4002C24.0036 11.8001 23.6711 11.6659 23.4027 11.3976C23.1344 11.1293 23.0002 10.7968 23.0002 10.4001C23.0002 10.0034 23.1344 9.67093 23.4027 9.4026C23.6711 9.13426 24.0036 9.0001 24.4002 9.0001H26.4652C25.3452 7.3201 23.8694 5.96676 22.0377 4.9401C20.2061 3.91343 18.1936 3.4001 16.0002 3.4001Z" fill="#DE344B"/>
</svg>
