<svg width="34" height="34" viewBox="0 0 34 34" fill="none" xmlns="http://www.w3.org/2000/svg">
<mask id="mask0_5_139" style="mask-type:alpha" maskUnits="userSpaceOnUse" x="0" y="0" width="34" height="34">
<rect x="0.200073" y="0.200195" width="33.6" height="33.6" fill="#D9D9D9"/>
</mask>
<g mask="url(#mask0_5_139)">
<path d="M11.4003 16.65V10.7C11.4003 10.1167 11.6044 9.62083 12.0128 9.2125C12.4211 8.80417 12.9169 8.6 13.5003 8.6C14.0836 8.6 14.5794 8.80417 14.9878 9.2125C15.3961 9.62083 15.6003 10.1167 15.6003 10.7V16.65C15.6003 17.2333 15.3961 17.7292 14.9878 18.1375C14.5794 18.5458 14.0836 18.75 13.5003 18.75C12.9169 18.75 12.4211 18.5458 12.0128 18.1375C11.6044 17.7292 11.4003 17.2333 11.4003 16.65ZM18.4003 16.335V5.1C18.4003 4.51667 18.6044 4.02083 19.0128 3.6125C19.4211 3.20417 19.9169 3 20.5003 3C21.0836 3 21.5794 3.20417 21.9878 3.6125C22.3961 4.02083 22.6003 4.51667 22.6003 5.1V16.335C22.6003 17.035 22.3844 17.56 21.9528 17.91C21.5211 18.26 21.0369 18.435 20.5003 18.435C19.9636 18.435 19.4794 18.26 19.0478 17.91C18.6161 17.56 18.4003 17.035 18.4003 16.335ZM4.40027 21.165V16.3C4.40027 15.7167 4.60444 15.2208 5.01277 14.8125C5.4211 14.4042 5.91694 14.2 6.50027 14.2C7.0836 14.2 7.57944 14.4042 7.98777 14.8125C8.3961 15.2208 8.60027 15.7167 8.60027 16.3V21.165C8.60027 21.865 8.38444 22.39 7.95277 22.74C7.5211 23.09 7.03694 23.265 6.50027 23.265C5.9636 23.265 5.47944 23.09 5.04777 22.74C4.6161 22.39 4.40027 21.865 4.40027 21.165ZM7.76027 29.67C7.1536 29.67 6.72777 29.3842 6.48277 28.8125C6.23777 28.2408 6.33694 27.7333 6.78027 27.29L12.5203 21.55C12.7769 21.2933 13.0861 21.1533 13.4478 21.13C13.8094 21.1067 14.1303 21.2233 14.4103 21.48L18.4003 24.91L26.2403 17.07H25.4003C25.0036 17.07 24.6711 16.9358 24.4028 16.6675C24.1344 16.3992 24.0003 16.0667 24.0003 15.67C24.0003 15.2733 24.1344 14.9408 24.4028 14.6725C24.6711 14.4042 25.0036 14.27 25.4003 14.27H29.6003C29.9969 14.27 30.3294 14.4042 30.5978 14.6725C30.8661 14.9408 31.0003 15.2733 31.0003 15.67V19.87C31.0003 20.2667 30.8661 20.5992 30.5978 20.8675C30.3294 21.1358 29.9969 21.27 29.6003 21.27C29.2036 21.27 28.8711 21.1358 28.6028 20.8675C28.3344 20.5992 28.2003 20.2667 28.2003 19.87V19.03L19.4503 27.78C19.1936 28.0367 18.8844 28.1767 18.5228 28.2C18.1611 28.2233 17.8403 28.1067 17.5603 27.85L13.5703 24.42L8.74027 29.25C8.6236 29.3667 8.47777 29.4658 8.30277 29.5475C8.12777 29.6292 7.94694 29.67 7.76027 29.67Z" fill="#DE344B"/>
</g>
</svg>
