<svg width="41" height="41" viewBox="0 0 41 41" fill="none" xmlns="http://www.w3.org/2000/svg">
<path d="M20.544 41H20.456C9.45238 41 0.5 32.045 0.5 21.0382V20.9502C0.5 9.94329 9.45238 0.988281 20.456 0.988281H20.544C31.5476 0.988281 40.5 9.94329 40.5 20.9502V21.0382C40.5 32.045 31.5476 41 20.544 41ZM20.456 2.34264C10.1984 2.34264 1.85396 10.6895 1.85396 20.9502V21.0382C1.85396 31.2988 10.1984 39.6457 20.456 39.6457H20.544C30.8016 39.6457 39.146 31.2988 39.146 21.0382V20.9502C39.146 10.6895 30.8016 2.34264 20.544 2.34264H20.456Z" fill="#2F1C1F"/>
<path d="M26.4797 9.53021H14.5215C11.2179 9.53021 8.53027 12.2186 8.53027 15.5232V26.4665C8.53027 29.7711 11.2179 32.4595 14.5215 32.4595H26.4797C29.7834 32.4595 32.471 29.7711 32.471 26.4665V15.5232C32.471 12.2186 29.7834 9.53021 26.4797 9.53021ZM10.6438 15.5232C10.6438 13.3847 12.3836 11.6444 14.5215 11.6444H26.4797C28.6176 11.6444 30.3574 13.3847 30.3574 15.5232V26.4665C30.3574 28.605 28.6176 30.3453 26.4797 30.3453H14.5215C12.3836 30.3453 10.6438 28.605 10.6438 26.4665V15.5232Z" fill="#2F1C1F"/>
<path d="M20.5006 26.568C23.5728 26.568 26.0735 24.0679 26.0735 20.9935C26.0735 17.9191 23.5741 15.4189 20.5006 15.4189C17.4271 15.4189 14.9277 17.9191 14.9277 20.9935C14.9277 24.0679 17.4271 26.568 20.5006 26.568ZM20.5006 17.5345C22.4084 17.5345 23.96 19.0866 23.96 20.9948C23.96 22.9031 22.4084 24.4552 20.5006 24.4552C18.5929 24.4552 17.0413 22.9031 17.0413 20.9948C17.0413 19.0866 18.5929 17.5345 20.5006 17.5345Z" fill="#2F1C1F"/>
<path d="M26.5894 16.32C27.4167 16.32 28.091 15.6469 28.091 14.818C28.091 13.9892 27.418 13.316 26.5894 13.316C25.7608 13.316 25.0879 13.9892 25.0879 14.818C25.0879 15.6469 25.7608 16.32 26.5894 16.32Z" fill="#2F1C1F"/>
</svg>
