<svg width="96" height="42" viewBox="0 0 96 42" fill="none" xmlns="http://www.w3.org/2000/svg">
<path d="M34.338 6.97899V19.9787H29.8516V6.97899H22.8015V3.36326H41.4001V6.97899H34.338ZM62.9098 11.6831C62.9098 13.11 62.6478 14.3717 62.1237 15.4681C61.5997 16.5564 60.85 17.4674 59.8745 18.2011C58.899 18.9347 57.7139 19.491 56.3192 19.8699C54.9326 20.2407 53.3726 20.4261 51.6393 20.4261C49.906 20.4261 48.338 20.2407 46.9352 19.8699C45.5405 19.491 44.3514 18.9347 43.3679 18.2011C42.3843 17.4674 41.6265 16.5564 41.0944 15.4681C40.5624 14.3717 40.2963 13.11 40.2963 11.6831C40.2963 10.2561 40.5624 8.99848 41.0944 7.91013C41.6265 6.81372 42.3843 5.8987 43.3679 5.16508C44.3514 4.43145 45.5405 3.87921 46.9352 3.50837C48.338 3.12946 49.906 2.94001 51.6393 2.94001C53.3726 2.94001 54.9326 3.12946 56.3192 3.50837C57.7139 3.87921 58.899 4.43145 59.8745 5.16508C60.85 5.8987 61.5997 6.81372 62.1237 7.91013C62.6478 8.99848 62.9098 10.2561 62.9098 11.6831ZM58.375 11.6831C58.375 11.0623 58.2742 10.4456 58.0727 9.83288C57.8792 9.21212 57.5285 8.65585 57.0206 8.16408C56.5208 7.67231 55.8355 7.27325 54.9648 6.9669C54.0942 6.66055 52.9857 6.50737 51.6393 6.50737C50.7364 6.50737 49.9423 6.57993 49.2571 6.72504C48.5718 6.86209 47.9793 7.05558 47.4794 7.30549C46.9796 7.55541 46.5604 7.84967 46.2218 8.18827C45.8832 8.5188 45.6131 8.87755 45.4116 9.26452C45.21 9.64343 45.0649 10.0425 44.9762 10.4617C44.8956 10.8729 44.8553 11.28 44.8553 11.6831C44.8553 12.0942 44.8956 12.5094 44.9762 12.9286C45.0649 13.3478 45.21 13.7509 45.4116 14.1379C45.6131 14.5168 45.8832 14.8715 46.2218 15.2021C46.5604 15.5326 46.9796 15.8228 47.4794 16.0727C47.9793 16.3146 48.5718 16.5081 49.2571 16.6532C49.9423 16.7902 50.7364 16.8588 51.6393 16.8588C52.9857 16.8588 54.0942 16.7056 54.9648 16.3992C55.8355 16.0929 56.5208 15.6938 57.0206 15.2021C57.5285 14.7103 57.8792 14.1581 58.0727 13.5454C58.2742 12.9246 58.375 12.3038 58.375 11.6831ZM82.4488 9.03476C82.4488 9.86513 82.3278 10.631 82.086 11.3324C81.8441 12.0257 81.4531 12.6263 80.913 13.1342C80.3809 13.634 79.6876 14.025 78.833 14.3072C77.9785 14.5894 76.9385 14.7304 75.7131 14.7304H68.264V19.9787H63.7775V3.36326H75.7131C76.9385 3.36326 77.9785 3.50434 78.833 3.7865C79.6876 4.06061 80.3809 4.4516 80.913 4.9595C81.4531 5.45933 81.8441 6.05591 82.086 6.74923C82.3278 7.44255 82.4488 8.20439 82.4488 9.03476ZM77.914 9.10731C77.914 8.72035 77.8575 8.38981 77.7447 8.11571C77.6399 7.83354 77.4625 7.60378 77.2126 7.42642C76.9627 7.24906 76.6362 7.12007 76.2331 7.03945C75.83 6.95077 75.3342 6.90643 74.7457 6.90643H68.264V11.1873H74.7457C75.3342 11.1873 75.83 11.155 76.2331 11.0905C76.6362 11.018 76.9627 10.9011 77.2126 10.7398C77.4625 10.5705 77.6399 10.3529 77.7447 10.0868C77.8575 9.82079 77.914 9.49428 77.914 9.10731Z" fill="url(#paint0_linear_56_6012)"/>
<path d="M13.4593 21.9613C15.0877 21.9613 16.5993 22.1024 17.994 22.3846C19.3968 22.6587 20.6827 23.0134 21.8516 23.4487V27.5119C21.3921 27.2539 20.8721 27.004 20.2917 26.7621C19.7193 26.5203 19.0945 26.3066 18.4173 26.1212C17.7401 25.9358 17.0145 25.7867 16.2406 25.6738C15.4667 25.5609 14.6524 25.5045 13.7979 25.5045C12.7337 25.5045 11.8066 25.5811 11.0165 25.7343C10.2265 25.8874 9.54926 26.093 8.98494 26.351C8.42061 26.609 7.95705 26.9113 7.59427 27.2579C7.23149 27.5965 6.94529 27.9593 6.73568 28.3463C6.52608 28.7333 6.38096 29.1283 6.30034 29.5314C6.21973 29.9345 6.17942 30.3255 6.17942 30.7044C6.17942 31.0349 6.21166 31.3937 6.27616 31.7806C6.34872 32.1676 6.47771 32.5546 6.66313 32.9415C6.85661 33.3285 7.12265 33.6993 7.46125 34.0541C7.79985 34.4088 8.23922 34.7232 8.77936 34.9973C9.32756 35.2714 9.9846 35.4931 10.7505 35.6624C11.5164 35.8236 12.4273 35.9043 13.4834 35.9043C14.0155 35.9043 14.4791 35.8881 14.8741 35.8559C15.2691 35.8236 15.6279 35.7793 15.9504 35.7229C16.2809 35.6664 16.5872 35.5979 16.8694 35.5173C17.1596 35.4367 17.4579 35.352 17.7643 35.2633V33.2559H12.7337V29.616H22.2507V38.1051C21.6541 38.3067 20.985 38.4921 20.2433 38.6614C19.5097 38.8226 18.7478 38.9597 17.9578 39.0726C17.1758 39.1935 16.3897 39.2862 15.5997 39.3507C14.8096 39.4152 14.0639 39.4474 13.3625 39.4474C12.2742 39.4474 11.2302 39.3749 10.2305 39.2298C9.23082 39.0846 8.29565 38.8629 7.42497 38.5647C6.56235 38.2583 5.77229 37.8713 5.05479 37.4038C4.34535 36.9362 3.73668 36.3799 3.22879 35.735C2.72895 35.09 2.33795 34.3524 2.05579 33.522C1.78169 32.6836 1.64464 31.7443 1.64464 30.7044C1.64464 29.6725 1.78975 28.7373 2.07997 27.8989C2.3702 27.0604 2.77329 26.3187 3.28925 25.6738C3.81327 25.0288 4.43806 24.4726 5.16363 24.005C5.89725 23.5374 6.69941 23.1545 7.57008 22.8562C8.44882 22.5498 9.384 22.3241 10.3756 22.179C11.3753 22.0339 12.4032 21.9613 13.4593 21.9613ZM23.8682 39V22.3846H28.3546V35.3601H40.4837V39H23.8682ZM62.864 30.7044C62.864 32.1313 62.6019 33.393 62.0779 34.4894C61.5539 35.5778 60.8042 36.4887 59.8287 37.2224C58.8532 37.956 57.6681 38.5123 56.2734 38.8912C54.8868 39.262 53.3268 39.4474 51.5935 39.4474C49.8602 39.4474 48.2922 39.262 46.8894 38.8912C45.4947 38.5123 44.3056 37.956 43.3221 37.2224C42.3385 36.4887 41.5807 35.5778 41.0486 34.4894C40.5165 33.393 40.2505 32.1313 40.2505 30.7044C40.2505 29.2774 40.5165 28.0198 41.0486 26.9314C41.5807 25.835 42.3385 24.92 43.3221 24.1864C44.3056 23.4528 45.4947 22.9005 46.8894 22.5297C48.2922 22.1508 49.8602 21.9613 51.5935 21.9613C53.3268 21.9613 54.8868 22.1508 56.2734 22.5297C57.6681 22.9005 58.8532 23.4528 59.8287 24.1864C60.8042 24.92 61.5539 25.835 62.0779 26.9314C62.6019 28.0198 62.864 29.2774 62.864 30.7044ZM58.3292 30.7044C58.3292 30.0836 58.2284 29.4669 58.0269 28.8542C57.8334 28.2334 57.4827 27.6772 56.9748 27.1854C56.4749 26.6936 55.7897 26.2945 54.919 25.9882C54.0483 25.6818 52.9398 25.5287 51.5935 25.5287C50.6906 25.5287 49.8965 25.6012 49.2112 25.7463C48.526 25.8834 47.9334 26.0769 47.4336 26.3268C46.9338 26.5767 46.5146 26.871 46.176 27.2096C45.8374 27.5401 45.5673 27.8989 45.3657 28.2858C45.1642 28.6647 45.0191 29.0638 44.9304 29.483C44.8498 29.8942 44.8095 30.3013 44.8095 30.7044C44.8095 31.1155 44.8498 31.5307 44.9304 31.9499C45.0191 32.3691 45.1642 32.7722 45.3657 33.1592C45.5673 33.5381 45.8374 33.8928 46.176 34.2234C46.5146 34.5539 46.9338 34.8441 47.4336 35.094C47.9334 35.3359 48.526 35.5294 49.2112 35.6745C49.8965 35.8115 50.6906 35.8801 51.5935 35.8801C52.9398 35.8801 54.0483 35.7269 54.919 35.4205C55.7897 35.1142 56.4749 34.7151 56.9748 34.2234C57.4827 33.7316 57.8334 33.1794 58.0269 32.5667C58.2284 31.9459 58.3292 31.3251 58.3292 30.7044ZM79.7546 22.3846L83.9992 33.921L88.5944 22.3846H93.2501L86.5749 39H81.5927L77.2514 27.8263L72.9222 39H67.94L61.2527 22.3846H65.9205L70.419 33.6792L74.7603 22.3846H79.7546Z" fill="url(#paint1_linear_56_6012)"/>
<path d="M76.4041 20.8551C76.1083 20.8551 75.835 20.7723 75.5843 20.6069C75.3386 20.4364 75.1405 20.2057 74.9901 19.9149C74.8447 19.619 74.772 19.2831 74.772 18.907C74.772 18.5309 74.8472 18.195 74.9976 17.8991C75.148 17.6033 75.3511 17.3701 75.6069 17.1996C75.8676 17.0291 76.1584 16.9439 76.4793 16.9439C76.8303 16.9439 77.0961 17.0342 77.2766 17.2147C77.4621 17.3902 77.5875 17.6258 77.6527 17.9217C77.7229 18.2175 77.758 18.546 77.758 18.907C77.758 19.0975 77.7379 19.3056 77.6978 19.5313C77.6577 19.7519 77.5875 19.965 77.4872 20.1706C77.3919 20.3712 77.2566 20.5367 77.0811 20.667C76.9056 20.7924 76.6799 20.8551 76.4041 20.8551ZM76.5546 20.2834C76.8103 20.2834 77.0209 20.2208 77.1864 20.0954C77.3568 19.97 77.4822 19.8046 77.5624 19.599C77.6427 19.3884 77.6828 19.1577 77.6828 18.907C77.6828 18.6312 77.6402 18.3905 77.5549 18.1849C77.4747 17.9743 77.3493 17.8114 77.1788 17.696C77.0134 17.5757 76.8053 17.5155 76.5546 17.5155C76.1785 17.5155 75.8877 17.6484 75.6821 17.9142C75.4765 18.1749 75.3737 18.5059 75.3737 18.907C75.3737 19.1728 75.4238 19.4109 75.5241 19.6215C75.6294 19.8271 75.7698 19.9901 75.9453 20.1104C76.1258 20.2258 76.3289 20.2834 76.5546 20.2834ZM77.6828 17.0191H78.2845V20.7798H77.7354C77.7354 20.7798 77.7304 20.7347 77.7204 20.6445C77.7154 20.5542 77.7078 20.4489 77.6978 20.3286C77.6878 20.2082 77.6828 20.1079 77.6828 20.0277V17.0191ZM79.9342 20.1857C79.6685 20.1857 79.4152 20.123 79.1745 19.9976C78.9389 19.8672 78.7458 19.6817 78.5954 19.441C78.45 19.2003 78.3773 18.912 78.3773 18.5761C78.3773 18.2401 78.45 17.9518 78.5954 17.7111C78.7408 17.4654 78.9314 17.2774 79.167 17.147C79.4027 17.0116 79.6584 16.9439 79.9342 16.9439C80.0195 16.9439 80.0997 16.9514 80.1749 16.9665C80.2551 16.9765 80.3303 16.994 80.4005 17.0191H81.9274V17.666C81.7118 17.666 81.4962 17.6258 81.2806 17.5456C81.07 17.4654 80.8894 17.3827 80.739 17.2974L80.7089 17.2673C80.8844 17.3626 81.0273 17.4754 81.1376 17.6058C81.253 17.7362 81.3382 17.8841 81.3934 18.0496C81.4535 18.21 81.4836 18.3855 81.4836 18.5761C81.4836 18.912 81.4109 19.2003 81.2655 19.441C81.1251 19.6817 80.9371 19.8672 80.7014 19.9976C80.4657 20.123 80.21 20.1857 79.9342 20.1857ZM81.0399 22.2841V22.1187C81.0399 21.8529 80.9697 21.6599 80.8293 21.5395C80.6939 21.4192 80.4883 21.359 80.2125 21.359H79.4604C79.2949 21.359 79.1495 21.344 79.0241 21.3139C78.9038 21.2888 78.8035 21.2487 78.7233 21.1935C78.643 21.1384 78.5829 21.0707 78.5427 20.9904C78.5026 20.9102 78.4826 20.82 78.4826 20.7197C78.4826 20.5291 78.5402 20.3862 78.6556 20.291C78.7709 20.1907 78.9138 20.128 79.0843 20.1029C79.2548 20.0778 79.4177 20.0778 79.5732 20.1029L79.9342 20.1857C79.6634 20.2007 79.4528 20.2283 79.3024 20.2684C79.157 20.3085 79.0843 20.3937 79.0843 20.5241C79.0843 20.5993 79.1119 20.662 79.167 20.7122C79.2272 20.7573 79.3149 20.7798 79.4303 20.7798H80.2125C80.4733 20.7798 80.7114 20.8149 80.927 20.8851C81.1427 20.9604 81.3157 21.0832 81.446 21.2537C81.5764 21.4292 81.6416 21.6674 81.6416 21.9682V22.2841H81.0399ZM79.9342 19.6215C80.0997 19.6215 80.2526 19.5814 80.393 19.5012C80.5384 19.421 80.6563 19.3031 80.7465 19.1477C80.8368 18.9922 80.8819 18.8017 80.8819 18.5761C80.8819 18.3504 80.8368 18.1599 80.7465 18.0044C80.6613 17.844 80.546 17.7236 80.4005 17.6434C80.2551 17.5582 80.0997 17.5155 79.9342 17.5155C79.7687 17.5155 79.6133 17.5582 79.4679 17.6434C79.3225 17.7236 79.2046 17.8415 79.1144 17.9969C79.0241 18.1524 78.979 18.3454 78.979 18.5761C78.979 18.8017 79.0241 18.9922 79.1144 19.1477C79.2046 19.3031 79.3225 19.421 79.4679 19.5012C79.6133 19.5814 79.7687 19.6215 79.9342 19.6215ZM84.6207 19.5689H85.1848C85.1447 19.8146 85.0545 20.0352 84.9141 20.2308C84.7787 20.4213 84.5982 20.5743 84.3725 20.6896C84.1519 20.7999 83.8962 20.8551 83.6053 20.8551C83.2543 20.8551 82.9384 20.7723 82.6576 20.6069C82.3768 20.4364 82.1537 20.2057 81.9882 19.9149C81.8278 19.619 81.7475 19.2831 81.7475 18.907C81.7475 18.5309 81.8253 18.195 81.9807 17.8991C82.1412 17.6033 82.3593 17.3701 82.6351 17.1996C82.9109 17.0291 83.2217 16.9439 83.5677 16.9439C83.9338 16.9439 84.2421 17.0266 84.4929 17.1921C84.7486 17.3526 84.9366 17.5907 85.057 17.9067C85.1823 18.2175 85.2325 18.6011 85.2074 19.0574H82.3492C82.3743 19.3031 82.442 19.5187 82.5523 19.7043C82.6626 19.8898 82.8081 20.0352 82.9886 20.1405C83.1691 20.2408 83.3747 20.291 83.6053 20.291C83.8611 20.291 84.0767 20.2258 84.2522 20.0954C84.4327 19.96 84.5555 19.7845 84.6207 19.5689ZM83.5903 17.508C83.2794 17.508 83.0187 17.5983 82.8081 17.7788C82.5975 17.9593 82.4571 18.205 82.3869 18.5159H84.5906C84.5706 18.1849 84.4628 17.9342 84.2672 17.7637C84.0767 17.5933 83.851 17.508 83.5903 17.508ZM85.3064 17.0191H85.9081V20.7798H85.3064V17.0191ZM87.2018 16.9439C87.4023 16.9439 87.5828 16.974 87.7433 17.0342C87.9038 17.0943 88.0392 17.1821 88.1495 17.2974C88.2598 17.4127 88.345 17.5531 88.4052 17.7186C88.4654 17.8791 88.4955 18.0621 88.4955 18.2677V20.7798H87.8937V18.4181C87.8937 18.1273 87.826 17.9092 87.6907 17.7637C87.5553 17.6183 87.3522 17.5456 87.0814 17.5456C86.8758 17.5456 86.6853 17.5983 86.5098 17.7036C86.3343 17.8089 86.1889 17.9543 86.0735 18.1398C85.9632 18.3203 85.8955 18.5309 85.8705 18.7716L85.8629 18.3354C85.888 18.1248 85.9382 17.9342 86.0134 17.7637C86.0936 17.5933 86.1914 17.4478 86.3067 17.3275C86.4271 17.2021 86.5624 17.1069 86.7129 17.0417C86.8683 16.9765 87.0313 16.9439 87.2018 16.9439ZM92.1337 19.3658C92.0986 19.6767 91.9983 19.945 91.8328 20.1706C91.6723 20.3912 91.4693 20.5617 91.2236 20.6821C90.9779 20.7974 90.7121 20.8551 90.4263 20.8551C90.1054 20.8551 89.8045 20.7773 89.5237 20.6219C89.2429 20.4665 89.0148 20.2433 88.8393 19.9525C88.6688 19.6566 88.5835 19.3081 88.5835 18.907C88.5835 18.5059 88.6688 18.1599 88.8393 17.869C89.0148 17.5732 89.2429 17.345 89.5237 17.1846C89.8045 17.0241 90.1054 16.9439 90.4263 16.9439C90.7121 16.9439 90.9754 17.0041 91.216 17.1244C91.4617 17.2448 91.6648 17.4152 91.8253 17.6359C91.9908 17.8565 92.0935 18.1198 92.1337 18.4256H91.5846C91.4994 18.1398 91.3514 17.9167 91.1408 17.7562C90.9302 17.5907 90.6921 17.508 90.4263 17.508C90.2107 17.508 90.0076 17.5632 89.8171 17.6735C89.6265 17.7838 89.4736 17.9443 89.3582 18.1549C89.2429 18.3604 89.1853 18.6112 89.1853 18.907C89.1853 19.1978 89.2429 19.4485 89.3582 19.6591C89.4736 19.8647 89.624 20.0227 89.8095 20.133C90.0001 20.2383 90.2057 20.291 90.4263 20.291C90.7322 20.291 90.9804 20.2107 91.1709 20.0503C91.3665 19.8848 91.5069 19.6566 91.5921 19.3658H92.1337ZM91.8847 17.0191H92.5315L93.8779 20.6294L93.3514 20.7798L91.8847 17.0191ZM95.3822 17.0191L93.2837 22.2841H92.6293L93.5394 20.2533L94.7428 17.0191H95.3822Z" fill="#DE344B"/>
<defs>
<linearGradient id="paint0_linear_56_6012" x1="40.7815" y1="9.99376" x2="64.7804" y2="9.99376" gradientUnits="userSpaceOnUse">
<stop/>
<stop offset="0.559729" stop-color="#595959"/>
<stop offset="1"/>
</linearGradient>
<linearGradient id="paint1_linear_56_6012" x1="37.695" y1="29.0151" x2="66.204" y2="29.0151" gradientUnits="userSpaceOnUse">
<stop/>
<stop offset="0.559729" stop-color="#595959"/>
<stop offset="1"/>
</linearGradient>
</defs>
</svg>
