<svg width="54" height="55" viewBox="0 0 54 55" fill="none" xmlns="http://www.w3.org/2000/svg">
<path d="M24.9328 35.3067C26.2305 35.4021 27.324 34.2503 28.1745 33.3762C32.5122 29.16 34.695 26.9114 35.1186 25.7909C38.3476 19.3185 31.077 12.1222 24.9328 17.6968C18.7903 12.1238 11.5163 19.316 14.7487 25.7917C15.1706 26.9097 17.35 29.1558 21.6802 33.3652C22.5273 34.2267 23.6402 35.4156 24.9328 35.3067ZM16.3299 25.2053C15.7165 24.0589 15.5208 22.7349 15.7764 21.46C16.0319 20.1852 16.7227 19.0389 17.7306 18.2174C19.9682 16.6269 22.1957 17.4302 24.3464 19.4408C24.5036 19.5931 24.7139 19.6783 24.9328 19.6783C25.1517 19.6783 25.362 19.5931 25.5192 19.4408C27.8193 17.2201 30.2307 16.7729 32.1359 18.2182C33.1437 19.0393 33.8346 20.1854 34.09 21.4601C34.3453 22.7347 34.1494 24.0585 33.5357 25.2045C33.2347 26.1042 29.0274 30.1939 27.0025 32.1622C27.0011 32.1636 26.9997 32.1649 26.9983 32.1663L25.9327 33.2041C25.6667 33.4678 25.3073 33.6157 24.9328 33.6157C24.5583 33.6157 24.1989 33.4678 23.933 33.2041L22.8572 32.1561C20.8356 30.1919 16.6303 26.1031 16.3299 25.2053ZM46.3826 25.5918C47.5689 14.2037 37.4625 4.55456 24.9328 4.56299C13.0444 4.56299 3.375 13.2005 3.375 23.8174V41.2914C3.38094 41.7696 3.53017 42.235 3.80341 42.6275C4.07664 43.02 4.46132 43.3215 4.90771 43.493C5.35411 43.6646 5.8417 43.6983 6.30745 43.5898C6.7732 43.4813 7.19571 43.2356 7.52034 42.8844L10.8667 39.1669C10.9779 39.0438 11.1297 38.9651 11.2944 38.9451C11.459 38.9251 11.6253 38.9652 11.7627 39.058C14.8531 41.1629 18.4119 42.4789 22.1282 42.8912C23.6577 44.852 25.6217 46.4308 27.8655 47.5032C30.1092 48.5756 32.5713 49.1122 35.0578 49.0708C38.4462 49.0946 41.7613 48.0847 44.561 46.1759C44.6087 46.144 44.6665 46.1308 44.7234 46.1389C44.7802 46.147 44.832 46.1758 44.8689 46.2198L47.2551 48.8582C47.5187 49.1434 47.8617 49.3431 48.2399 49.4314C48.6181 49.5198 49.0141 49.4928 49.3768 49.354C49.7395 49.2151 50.0523 48.9708 50.2747 48.6524C50.4972 48.3341 50.6192 47.9564 50.625 47.5681V35.1405C50.6124 33.3428 50.2291 31.5671 49.4992 29.9243C48.7692 28.2815 47.7083 26.8069 46.3826 25.5926V25.5918ZM9.61622 38.0346L6.26653 41.7555C6.17389 41.8616 6.05088 41.9366 5.91415 41.9704C5.77743 42.0043 5.63362 41.9952 5.5022 41.9446C5.37078 41.8939 5.25811 41.8041 5.17946 41.6873C5.10081 41.5704 5.05998 41.4322 5.0625 41.2914V23.8174C5.0625 14.1311 13.9759 6.25049 24.9328 6.25049C36.6187 6.24206 46.0038 15.2491 44.6664 25.8027C42.9874 39.7035 24.2367 45.8924 12.7237 37.6709C12.2492 37.346 11.6731 37.2038 11.1019 37.2707C10.5307 37.3375 10.0029 37.6089 9.61622 38.0346ZM48.9375 47.5689C48.9385 47.6192 48.9239 47.6685 48.8957 47.7101C48.8674 47.7516 48.8269 47.7834 48.7798 47.8009C48.7327 47.8184 48.6813 47.8209 48.6328 47.8079C48.5842 47.7949 48.5409 47.7671 48.5089 47.7284L46.1236 45.0908C45.8118 44.7417 45.3832 44.5184 44.9184 44.4628C44.4536 44.4071 43.9845 44.5231 43.5991 44.7888C41.0821 46.5021 38.1025 47.4072 35.0578 47.3833C33.0921 47.4106 31.1411 47.0409 29.3216 46.2965C27.5021 45.552 25.8515 44.448 24.4687 43.0506C34.9093 43.2996 44.0387 36.6786 46.0434 27.664C47.8926 29.7168 48.9227 32.3777 48.9375 35.1405V47.5689Z" fill="url(#paint0_linear_28_3361)"/>
<path d="M24.9328 35.3067C26.2305 35.4021 27.324 34.2503 28.1745 33.3762C32.5122 29.16 34.695 26.9114 35.1186 25.7909C38.3476 19.3185 31.077 12.1222 24.9328 17.6968C18.7903 12.1238 11.5163 19.316 14.7487 25.7917C15.1706 26.9097 17.35 29.1558 21.6802 33.3652C22.5273 34.2267 23.6402 35.4156 24.9328 35.3067ZM16.3299 25.2053C15.7165 24.0589 15.5208 22.7349 15.7764 21.46C16.0319 20.1852 16.7227 19.0389 17.7306 18.2174C19.9682 16.6269 22.1957 17.4302 24.3464 19.4408C24.5036 19.5931 24.7139 19.6783 24.9328 19.6783C25.1517 19.6783 25.362 19.5931 25.5192 19.4408C27.8193 17.2201 30.2307 16.7729 32.1359 18.2182C33.1437 19.0393 33.8346 20.1854 34.09 21.4601C34.3453 22.7347 34.1494 24.0585 33.5357 25.2045C33.2347 26.1042 29.0274 30.1939 27.0025 32.1622C27.0011 32.1636 26.9997 32.1649 26.9983 32.1663L25.9327 33.2041C25.6667 33.4678 25.3073 33.6157 24.9328 33.6157C24.5583 33.6157 24.1989 33.4678 23.933 33.2041L22.8572 32.1561C20.8356 30.1919 16.6303 26.1031 16.3299 25.2053ZM46.3826 25.5918C47.5689 14.2037 37.4625 4.55456 24.9328 4.56299C13.0444 4.56299 3.375 13.2005 3.375 23.8174V41.2914C3.38094 41.7696 3.53017 42.235 3.80341 42.6275C4.07664 43.02 4.46132 43.3215 4.90771 43.493C5.35411 43.6646 5.8417 43.6983 6.30745 43.5898C6.7732 43.4813 7.19571 43.2356 7.52034 42.8844L10.8667 39.1669C10.9779 39.0438 11.1297 38.9651 11.2944 38.9451C11.459 38.9251 11.6253 38.9652 11.7627 39.058C14.8531 41.1629 18.4119 42.4789 22.1282 42.8912C23.6577 44.852 25.6217 46.4308 27.8655 47.5032C30.1092 48.5756 32.5713 49.1122 35.0578 49.0708C38.4462 49.0946 41.7613 48.0847 44.561 46.1759C44.6087 46.144 44.6665 46.1308 44.7234 46.1389C44.7802 46.147 44.832 46.1758 44.8689 46.2198L47.2551 48.8582C47.5187 49.1434 47.8617 49.3431 48.2399 49.4314C48.6181 49.5198 49.0141 49.4928 49.3768 49.354C49.7395 49.2151 50.0523 48.9708 50.2747 48.6524C50.4972 48.3341 50.6192 47.9564 50.625 47.5681V35.1405C50.6124 33.3428 50.2291 31.5671 49.4992 29.9243C48.7692 28.2815 47.7083 26.8069 46.3826 25.5926V25.5918ZM9.61622 38.0346L6.26653 41.7555C6.17389 41.8616 6.05088 41.9366 5.91415 41.9704C5.77743 42.0043 5.63362 41.9952 5.5022 41.9446C5.37078 41.8939 5.25811 41.8041 5.17946 41.6873C5.10081 41.5704 5.05998 41.4322 5.0625 41.2914V23.8174C5.0625 14.1311 13.9759 6.25049 24.9328 6.25049C36.6187 6.24206 46.0038 15.2491 44.6664 25.8027C42.9874 39.7035 24.2367 45.8924 12.7237 37.6709C12.2492 37.346 11.6731 37.2038 11.1019 37.2707C10.5307 37.3375 10.0029 37.6089 9.61622 38.0346ZM48.9375 47.5689C48.9385 47.6192 48.9239 47.6685 48.8957 47.7101C48.8674 47.7516 48.8269 47.7834 48.7798 47.8009C48.7327 47.8184 48.6813 47.8209 48.6328 47.8079C48.5842 47.7949 48.5409 47.7671 48.5089 47.7284L46.1236 45.0908C45.8118 44.7417 45.3832 44.5184 44.9184 44.4628C44.4536 44.4071 43.9845 44.5231 43.5991 44.7888C41.0821 46.5021 38.1025 47.4072 35.0578 47.3833C33.0921 47.4106 31.1411 47.0409 29.3216 46.2965C27.5021 45.552 25.8515 44.448 24.4687 43.0506C34.9093 43.2996 44.0387 36.6786 46.0434 27.664C47.8926 29.7168 48.9227 32.3777 48.9375 35.1405V47.5689Z" fill="url(#paint1_linear_28_3361)"/>
<path d="M16.3299 25.2053C15.7165 24.0589 15.5208 22.7349 15.7764 21.46C16.0319 20.1852 16.7227 19.0389 17.7306 18.2174C19.9682 16.6269 22.1957 17.4302 24.3464 19.4408C24.5036 19.5931 24.7139 19.6783 24.9328 19.6783C25.1517 19.6783 25.362 19.5931 25.5192 19.4408C27.8193 17.2201 30.2307 16.7729 32.1359 18.2182C33.1437 19.0393 33.8346 20.1854 34.09 21.4601C34.3453 22.7347 34.1494 24.0585 33.5357 25.2045C33.2347 26.1042 29.0274 30.1939 27.0025 32.1622L26.9983 32.1663L25.9327 33.2041C25.6667 33.4678 25.3073 33.6157 24.9328 33.6157C24.5583 33.6157 24.1989 33.4678 23.933 33.2041L22.8572 32.1561C20.8356 30.1919 16.6303 26.1031 16.3299 25.2053Z" fill="url(#paint2_linear_28_3361)"/>
<path d="M16.3299 25.2053C15.7165 24.0589 15.5208 22.7349 15.7764 21.46C16.0319 20.1852 16.7227 19.0389 17.7306 18.2174C19.9682 16.6269 22.1957 17.4302 24.3464 19.4408C24.5036 19.5931 24.7139 19.6783 24.9328 19.6783C25.1517 19.6783 25.362 19.5931 25.5192 19.4408C27.8193 17.2201 30.2307 16.7729 32.1359 18.2182C33.1437 19.0393 33.8346 20.1854 34.09 21.4601C34.3453 22.7347 34.1494 24.0585 33.5357 25.2045C33.2347 26.1042 29.0274 30.1939 27.0025 32.1622L26.9983 32.1663L25.9327 33.2041C25.6667 33.4678 25.3073 33.6157 24.9328 33.6157C24.5583 33.6157 24.1989 33.4678 23.933 33.2041L22.8572 32.1561C20.8356 30.1919 16.6303 26.1031 16.3299 25.2053Z" fill="url(#paint3_linear_28_3361)"/>
<defs>
<linearGradient id="paint0_linear_28_3361" x1="3.37416" y1="27.0278" x2="50.6258" y2="27.0278" gradientUnits="userSpaceOnUse">
<stop stop-color="#9D3ADF"/>
<stop offset="0.206" stop-color="#8542D8"/>
<stop offset="0.639" stop-color="#4857C6"/>
<stop offset="1" stop-color="#106AB6"/>
</linearGradient>
<linearGradient id="paint1_linear_28_3361" x1="3.375" y1="18.7556" x2="37.6707" y2="55.0732" gradientUnits="userSpaceOnUse">
<stop stop-color="#DC006E"/>
<stop offset="1" stop-color="#FF2600"/>
</linearGradient>
<linearGradient id="paint2_linear_28_3361" x1="3.37416" y1="27.0278" x2="50.6258" y2="27.0278" gradientUnits="userSpaceOnUse">
<stop stop-color="#9D3ADF"/>
<stop offset="0.206" stop-color="#8542D8"/>
<stop offset="0.639" stop-color="#4857C6"/>
<stop offset="1" stop-color="#106AB6"/>
</linearGradient>
<linearGradient id="paint3_linear_28_3361" x1="3.375" y1="18.7556" x2="37.6707" y2="55.0732" gradientUnits="userSpaceOnUse">
<stop stop-color="#DC006E"/>
<stop offset="1" stop-color="#FF2600"/>
</linearGradient>
</defs>
</svg>
