<svg width="24" height="24" viewBox="0 0 24 24" fill="none" xmlns="http://www.w3.org/2000/svg">
<path d="M12.0264 24.0071H11.9736C5.37142 24.0071 0 18.6341 0 12.0299V11.9771C0 5.37301 5.37142 0 11.9736 0H12.0264C18.6286 0 24 5.37301 24 11.9771V12.0299C24 18.6341 18.6286 24.0071 12.0264 24.0071ZM11.9736 0.812615C5.81904 0.812615 0.812375 5.82076 0.812375 11.9771V12.0299C0.812375 18.1863 5.81904 23.1945 11.9736 23.1945H12.0264C18.181 23.1945 23.1876 18.1863 23.1876 12.0299V11.9771C23.1876 5.82076 18.181 0.812615 12.0264 0.812615H11.9736Z" fill="white"/>
<path d="M4.7979 11.6085C4.83039 11.5923 4.8629 11.5768 4.89459 11.5622C5.44538 11.307 6.00348 11.0681 6.56077 10.8292C6.59083 10.8292 6.64118 10.7943 6.66961 10.7829C6.71267 10.7642 6.75573 10.7463 6.79879 10.7277C6.88165 10.6919 6.96452 10.657 7.04657 10.6212C7.21229 10.5505 7.37719 10.4798 7.54292 10.4091C7.87355 10.2677 8.20419 10.1263 8.53482 9.98411C9.1961 9.70132 9.8582 9.41772 10.5195 9.13493C11.1807 8.85214 11.8428 8.56853 12.5041 8.28574C13.1654 8.00295 13.8275 7.71935 14.4887 7.43657C15.15 7.15378 15.8121 6.87017 16.4734 6.58738C16.6204 6.52399 16.7796 6.42974 16.9372 6.40211C17.0697 6.37854 17.1988 6.33303 17.332 6.30784C17.5847 6.2599 17.8633 6.24039 18.1054 6.34522C18.1891 6.38179 18.2663 6.43298 18.3305 6.49718C18.6375 6.8011 18.5945 7.30004 18.5295 7.72748C18.077 10.7065 17.6245 13.6864 17.1712 16.6654C17.1094 17.0742 17.025 17.5227 16.7024 17.7811C16.4295 17.9997 16.0412 18.0241 15.704 17.9315C15.3669 17.838 15.0696 17.6422 14.7779 17.4496C13.5683 16.6484 12.3579 15.8471 11.1482 15.0459C10.8607 14.8557 10.5406 14.6071 10.5438 14.2617C10.5455 14.0537 10.6698 13.8684 10.7965 13.7034C11.8477 12.3318 13.3644 11.3891 14.4928 10.0808C14.652 9.89634 14.7771 9.56318 14.5586 9.45672C14.4286 9.39334 14.2791 9.47948 14.1605 9.56155C12.669 10.5976 11.1783 11.6345 9.68679 12.6706C9.20017 13.0087 8.69 13.3565 8.10347 13.4393C7.57867 13.5141 7.05063 13.3678 6.5429 13.2183C6.11721 13.0932 5.69233 12.9648 5.26908 12.8323C5.04405 12.7624 4.81171 12.6869 4.63786 12.5284C4.46401 12.3699 4.3641 12.1034 4.4689 11.8921C4.5347 11.7597 4.66225 11.676 4.79629 11.6077L4.7979 11.6085Z" fill="white"/>
</svg>
